<svg width="328" height="192" viewBox="0 0 328 192" fill="none" xmlns="http://www.w3.org/2000/svg">
<g clip-path="url(#clip0_144_9757)">
<rect width="328" height="192" rx="8" fill="white"/>
<path d="M-101.067 257.809L-81.9483 274.404C-72.2891 282.788 -54.1214 277.34 -51.822 265.371L-51.6236 264.339C-49.4852 253.208 -32.9334 247.783 -23.3251 255.064C-15.5859 260.929 -2.53767 258.702 2.95264 250.578L12.3934 236.609C13.2189 235.387 13.6319 234.776 13.974 234.32C23.0268 222.245 42.7867 219.243 54.6076 228.147C55.0544 228.483 55.609 228.947 56.7183 229.875C58.372 231.258 59.1997 231.95 59.7466 232.353C74.7309 243.392 100.091 235.224 103.914 218.128C104.053 217.504 104.207 216.496 104.513 214.482L105.102 210.601C105.608 207.269 105.861 205.603 106.252 204.312C109.79 192.616 124.07 184.74 138.126 186.734C139.679 186.954 141.579 187.432 145.381 188.388L221.976 207.661C237.478 211.561 254.457 201.991 256.161 188.393L257.304 179.26C258.842 166.983 276.249 159.843 288.043 166.652C299.879 173.484 317.341 166.271 318.794 153.951L320.636 138.324C321.083 134.54 321.306 132.648 321.674 131.302C325.363 117.819 343.063 109.55 358.197 114.239C359.708 114.707 361.672 115.578 365.597 117.319L372.785 120.507C385.622 126.2 392.04 129.047 396.799 129.492C410.498 130.772 423.881 122.945 427.248 111.685C428.418 107.772 427.497 101.711 425.655 89.5881L421.701 63.5658M-104.144 251.338L-84.917 268.128C-75.2737 276.549 -57.0593 271.081 -54.8093 259.09L-54.6191 258.076C-52.5241 246.911 -35.9076 241.461 -26.3034 248.79C-18.5613 254.697 -5.45117 252.454 0.0188246 244.285L9.32707 230.384C10.1403 229.169 10.547 228.562 10.8831 228.109C19.9164 215.941 39.8041 212.909 51.6457 221.895C52.0863 222.229 52.6348 222.691 53.7319 223.614C55.3691 224.992 56.188 225.681 56.7267 226.081C71.7238 237.215 97.2273 228.995 100.98 211.817C101.115 211.2 101.263 210.199 101.558 208.198L102.129 204.335C102.617 201.024 102.862 199.369 103.242 198.088C106.739 186.301 121.146 178.362 135.282 180.432C136.817 180.657 138.702 181.139 142.472 182.102L219.057 201.677C234.586 205.646 251.649 196.037 253.302 182.391L254.419 173.17C255.908 160.869 273.37 153.71 285.151 160.57C296.973 167.453 314.49 160.221 315.895 147.877L317.689 132.121C318.117 128.363 318.33 126.484 318.688 125.15C322.324 111.571 340.172 103.239 355.366 108.028C356.858 108.499 358.802 109.37 362.692 111.113L369.858 114.325C382.607 120.039 388.983 122.896 393.696 123.365C407.495 124.738 421.029 116.84 424.357 105.472C425.494 101.589 424.563 95.5552 422.7 83.4878L418.625 57.0954M-106.913 245.515L-87.6858 262.305C-78.0425 270.726 -59.8281 265.258 -57.5781 253.266L-57.3879 252.253C-55.2929 241.087 -38.6765 235.638 -29.0722 242.966C-21.3301 248.874 -8.21998 246.63 -2.74999 238.461L6.55826 224.56C7.37152 223.346 7.77814 222.739 8.11427 222.286C17.1476 210.117 37.0353 207.085 48.8769 216.071C49.3175 216.406 49.866 216.867 50.9631 217.79C52.6002 219.168 53.4191 219.857 53.9579 220.257C68.955 231.392 94.4585 223.171 98.2115 205.993C98.3463 205.376 98.494 204.375 98.7894 202.375L99.3598 198.511C99.8485 195.201 100.093 193.546 100.473 192.265C103.97 180.478 118.377 172.538 132.513 174.609C134.049 174.834 135.934 175.315 139.704 176.279L216.288 195.853C231.818 199.822 248.88 190.213 250.533 176.568L251.65 167.346C253.14 155.045 270.601 147.886 282.383 154.746C294.204 161.63 311.721 154.398 313.126 142.053L314.92 126.298C315.348 122.539 315.562 120.66 315.919 119.327C319.555 105.747 337.403 97.4157 352.597 102.205C354.089 102.675 356.034 103.547 359.923 105.29L367.089 108.502C379.838 114.216 386.214 117.073 390.927 117.542C404.726 118.914 418.26 111.016 421.588 99.6486C422.725 95.7655 421.794 89.7318 419.931 77.6644L415.856 51.272M-109.681 239.692L-90.4546 256.481C-80.8113 264.902 -62.5969 259.434 -60.3469 247.443L-60.1567 246.429C-58.0617 235.264 -41.4453 229.815 -31.841 237.143C-24.0989 243.051 -10.9888 240.807 -5.5188 232.638L3.78944 218.737C4.6027 217.522 5.00933 216.915 5.34546 216.462C14.3788 204.294 34.2665 201.262 46.1081 210.248C46.5487 210.582 47.0972 211.044 48.1943 211.967C49.8314 213.345 50.6503 214.034 51.1891 214.434C66.1862 225.569 91.6897 217.348 95.4426 200.17C95.5775 199.553 95.7252 198.552 96.0206 196.551L96.591 192.688C97.0797 189.378 97.3241 187.722 97.704 186.442C101.201 174.654 115.608 166.715 129.744 168.785C131.28 169.01 133.165 169.492 136.935 170.456L213.52 190.03C229.049 193.999 246.111 184.39 247.764 170.745L248.881 161.523C250.371 149.222 267.832 142.063 279.614 148.923C291.435 155.806 308.953 148.574 310.358 136.23L312.151 120.474C312.579 116.716 312.793 114.837 313.15 113.503C316.786 99.9241 334.634 91.5924 349.828 96.3817C351.32 96.8521 353.265 97.7236 357.154 99.4667L364.32 102.678C377.069 108.392 383.445 111.25 388.158 111.719C401.957 113.091 415.491 105.193 418.82 93.8252C419.957 89.9421 419.025 83.9085 417.162 71.8411L413.087 45.4486M-112.45 233.868L-93.2234 250.658C-83.5801 259.079 -65.3658 253.611 -63.1157 241.619L-62.9255 240.606C-60.8305 229.441 -44.2141 223.991 -34.6099 231.32C-26.8677 237.227 -13.7576 234.984 -8.28761 226.815L1.02064 212.914C1.83389 211.699 2.24052 211.092 2.57665 210.639C11.61 198.471 31.4977 195.439 43.3393 204.424C43.7799 204.759 44.3284 205.22 45.4254 206.144C47.0626 207.522 47.8815 208.211 48.4203 208.611C63.4174 219.745 88.9209 211.525 92.6738 194.346C92.8086 193.729 92.9564 192.729 93.2518 190.728L93.8221 186.865C94.3109 183.554 94.5553 181.899 94.9352 180.618C98.4323 168.831 112.839 160.892 126.975 162.962C128.511 163.187 130.396 163.669 134.166 164.632L210.751 184.206C226.28 188.176 243.342 178.567 244.995 164.921L246.112 155.7C247.602 143.399 265.064 136.24 276.845 143.1C288.667 149.983 306.184 142.751 307.589 130.407L309.382 114.651C309.81 110.893 310.024 109.014 310.381 107.68C314.017 94.1007 331.866 85.769 347.059 90.5584C348.551 91.0287 350.496 91.9002 354.385 93.6433L361.551 96.8551C374.301 102.569 380.676 105.426 385.389 105.895C399.188 107.268 412.722 99.3695 416.051 88.0019C417.188 84.1188 416.256 78.0851 414.393 66.0177L410.318 39.6253M-115.219 228.045L-95.9923 244.835C-86.3489 253.256 -68.1346 247.787 -65.8845 235.796L-65.6944 234.783C-63.5993 223.617 -46.9829 218.168 -37.3787 225.496C-29.6365 231.404 -16.5264 229.16 -11.0564 220.991L-1.74817 207.09C-0.934917 205.876 -0.528289 205.269 -0.192158 204.816C8.84116 192.647 28.7288 189.615 40.5705 198.601C41.0111 198.936 41.5596 199.397 42.6566 200.32C44.2938 201.698 45.1127 202.387 45.6515 202.787C60.6486 213.922 86.1521 205.701 89.905 188.523C90.0398 187.906 90.1876 186.905 90.483 184.905L91.0533 181.041C91.5421 177.731 91.7865 176.076 92.1664 174.795C95.6634 163.007 110.07 155.068 124.206 157.139C125.742 157.364 127.627 157.845 131.397 158.809L207.982 178.383C223.511 182.352 240.574 172.743 242.226 159.098L243.343 149.876C244.833 137.575 262.295 130.416 274.076 137.276C285.898 144.16 303.415 136.927 304.82 124.583L306.613 108.828C307.041 105.069 307.255 103.19 307.612 101.857C311.248 88.2773 329.097 79.9457 344.29 84.735C345.783 85.2054 347.727 86.0769 351.616 87.82L358.783 91.0317C371.532 96.7456 377.907 99.603 382.621 100.072C396.419 101.444 409.953 93.5462 413.282 82.1785C414.419 78.2954 413.487 72.2617 411.624 60.1943L407.55 33.8019M-117.988 222.222L-98.7611 239.011C-89.1177 247.432 -70.9034 241.964 -68.6533 229.973L-68.4632 228.959C-66.3682 217.794 -49.7517 212.345 -40.1475 219.673C-32.4053 225.581 -19.2952 223.337 -13.8252 215.168L-4.51698 201.267C-3.70373 200.052 -3.29709 199.445 -2.96096 198.992C6.07236 186.824 25.96 183.792 37.8016 192.778C38.2423 193.112 38.7908 193.574 39.8878 194.497C41.525 195.875 42.3439 196.564 42.8826 196.964C57.8798 208.098 83.3833 199.878 87.1362 182.7C87.271 182.083 87.4188 181.082 87.7142 179.081L88.2845 175.218C88.7733 171.908 89.0177 170.252 89.3976 168.972C92.8946 157.184 107.301 149.245 121.438 151.315C122.973 151.54 124.858 152.022 128.628 152.986L205.213 172.56C220.742 176.529 237.805 166.92 239.458 153.274L240.575 144.053C242.064 131.752 259.526 124.593 271.307 131.453C283.129 138.336 300.646 131.104 302.051 118.76L303.845 103.004C304.272 99.246 304.486 97.3668 304.843 96.0332C308.48 82.454 326.328 74.1223 341.522 78.9116C343.014 79.382 344.958 80.2535 348.848 81.9966L356.014 85.2083C368.763 90.9222 375.139 93.7796 379.852 94.2485C393.65 95.621 407.185 87.7228 410.513 76.3551C411.65 72.4721 410.719 66.4384 408.856 54.371L404.781 27.9786M-120.757 216.398L-101.638 232.993C-91.9784 241.377 -73.8107 235.93 -71.5113 223.961L-71.3129 222.928C-69.1746 211.797 -52.6227 206.372 -43.0144 213.654C-35.2752 219.519 -22.227 217.291 -16.7367 209.167L-7.29591 195.198C-6.47043 193.977 -6.05745 193.366 -5.71527 192.909C3.33749 180.834 23.0974 177.832 34.9183 186.736C35.3651 187.073 35.9197 187.536 37.0289 188.464C38.6827 189.847 39.5104 190.539 40.0572 190.942C55.0415 201.981 80.4019 193.814 84.2246 176.718C84.3641 176.094 84.5172 175.086 84.8233 173.071L85.4128 169.191C85.9189 165.859 86.172 164.193 86.5627 162.901C90.1005 151.205 104.381 143.33 118.437 145.323C119.989 145.543 121.89 146.021 125.691 146.978L202.286 166.25C217.789 170.151 234.768 160.581 236.471 146.982L237.615 137.849C239.153 125.572 256.559 118.433 268.354 125.241C280.189 132.074 297.651 124.861 299.104 112.54L300.947 96.9134C301.393 93.1299 301.616 91.2376 301.985 89.8911C305.673 76.4084 323.374 68.139 338.507 72.8283C340.019 73.2966 341.983 74.1675 345.908 75.9085L353.096 79.0967C365.932 84.7898 372.35 87.6363 377.11 88.0812C390.809 89.3617 404.192 81.5348 407.559 70.2744C408.728 66.3619 407.807 60.3005 405.966 48.1776L402.012 22.1552M-123.833 209.928L-104.606 226.717C-94.963 235.138 -76.7486 229.67 -74.4986 217.679L-74.3084 216.665C-72.2134 205.5 -55.597 200.051 -45.9927 207.379C-38.2506 213.287 -25.1405 211.043 -19.6705 202.874L-10.3622 188.973C-9.54899 187.759 -9.14237 187.151 -8.80624 186.699C0.227086 174.53 20.1148 171.498 31.9564 180.484C32.397 180.818 32.9455 181.28 34.0426 182.203C35.6797 183.581 36.4986 184.27 37.0374 184.67C52.0345 195.805 77.538 187.584 81.291 170.406C81.4258 169.789 81.5735 168.788 81.8689 166.787L82.4393 162.924C82.928 159.614 83.1724 157.959 83.5523 156.678C87.0494 144.89 101.456 136.951 115.592 139.022C117.128 139.246 119.013 139.728 122.783 140.692L199.368 160.266C214.897 164.235 231.96 154.626 233.612 140.981L234.729 131.759C236.219 119.458 253.681 112.299 265.462 119.159C277.284 126.042 294.801 118.81 296.206 106.466L297.999 90.7105C298.427 86.9522 298.641 85.0731 298.998 83.7395C302.634 70.1602 320.483 61.8286 335.676 66.6179C337.168 67.0882 339.113 67.9598 343.002 69.7029L350.168 72.9146C362.918 78.6285 369.293 81.4859 374.007 81.9547C387.805 83.3273 401.339 75.429 404.668 64.0614C405.805 60.1783 404.873 54.1446 403.01 42.0772L398.936 15.6848M-126.602 204.105L-107.375 220.894C-97.7318 229.315 -79.5175 223.847 -77.2674 211.856L-77.0772 210.842C-74.9822 199.677 -58.3658 194.227 -48.7616 201.556C-41.0194 207.464 -27.9093 205.22 -22.4393 197.051L-13.1311 183.15C-12.3178 181.935 -11.9112 181.328 -11.575 180.875C-2.54172 168.707 17.346 165.675 29.1876 174.661C29.6282 174.995 30.1767 175.457 31.2738 176.38C32.9109 177.758 33.7298 178.447 34.2686 178.847C49.2657 189.981 74.7692 181.761 78.5221 164.583C78.657 163.966 78.8047 162.965 79.1001 160.964L79.6704 157.101C80.1592 153.79 80.4036 152.135 80.7835 150.855C84.2806 139.067 98.6874 131.128 112.823 133.198C114.359 133.423 116.244 133.905 120.014 134.868L196.599 154.443C212.128 158.412 229.191 148.803 230.844 135.157L231.96 125.936C233.45 113.635 250.912 106.476 262.693 113.336C274.515 120.219 292.032 112.987 293.437 100.643L295.231 84.8872C295.658 81.1289 295.872 79.2497 296.229 77.9161C299.866 64.3369 317.714 56.0052 332.907 60.7945C334.4 61.2649 336.344 62.1364 340.234 63.8795L347.4 67.0912C360.149 72.8051 366.524 75.6625 371.238 76.1314C385.036 77.5039 398.57 69.6057 401.899 58.238C403.036 54.355 402.105 48.3213 400.241 36.2539L396.167 9.86145M-129.371 198.281L-110.144 215.071C-100.501 223.492 -82.2863 218.024 -80.0362 206.032L-79.8461 205.019C-77.751 193.853 -61.1346 188.404 -51.5304 195.733C-43.7882 201.64 -30.6781 199.396 -25.2081 191.227L-15.8999 177.327C-15.0866 176.112 -14.68 175.505 -14.3439 175.052C-5.31053 162.884 14.5771 159.852 26.4188 168.837C26.8594 169.172 27.4079 169.633 28.5049 170.557C30.1421 171.934 30.961 172.624 31.4998 173.024C46.4969 184.158 72.0004 175.937 75.7533 158.759C75.8881 158.142 76.0359 157.141 76.3313 155.141L76.9016 151.278C77.3904 147.967 77.6348 146.312 78.0147 145.031C81.5117 133.244 95.9186 125.304 110.055 127.375C111.59 127.6 113.475 128.082 117.246 129.045L193.83 148.619C209.36 152.588 226.422 142.979 228.075 129.334L229.192 120.112C230.682 107.812 248.143 100.653 259.925 107.512C271.746 114.396 289.263 107.164 290.668 94.8196L292.462 79.0638C292.89 75.3055 293.103 73.4264 293.461 72.0928C297.097 58.5135 314.945 50.1819 330.139 54.9712C331.631 55.4415 333.575 56.3131 337.465 58.0561L344.631 61.2679C357.38 66.9817 363.756 69.8391 368.469 70.308C382.268 71.6805 395.802 63.7823 399.13 52.4147C400.267 48.5316 399.336 42.4979 397.473 30.4305L393.398 4.0381" stroke="#E0E0E2" stroke-width="0.8"/>
<path d="M305.005 83.8128L297.066 94.1726C297.066 94.1726 290.725 90.1394 291.948 86.536C293.171 82.9326 295.746 84.0432 295.324 80.6461C294.902 77.249 296.74 73.3396 299.283 73.3396C301.825 73.3396 304.318 74.6015 304.318 74.6015L305.005 83.8128Z" fill="#1D0A03"/>
<path d="M257.5 75.8434C257.605 75.6784 258.768 73.7933 258.126 71.8618C257.404 69.6888 254.832 68.7604 253.766 68.3762C248.909 66.6243 246.496 69.2719 242.847 67.3928C241.999 66.9544 240.982 65.806 238.948 63.5092C235.595 59.721 234.786 57.664 232.807 57.5144C231.645 57.4284 230.387 58.0215 229.698 58.8364C226.911 62.1287 230.556 72.3664 238.175 76.7503C245.058 80.7147 254.985 79.7864 257.5 75.8434Z" fill="#917EEC"/>
<path d="M230.029 58.0114C230.029 58.0114 228.757 55.5521 229.35 53.6189L230.398 53.7332C230.398 53.7332 229.806 56.1289 230.7 57.9151C230.7 57.9151 232.354 56.6257 234.093 57.4312C235.127 57.9149 236.272 58.1376 237.42 58.0784C237.313 58.5387 237.061 58.9562 236.699 59.2737C236.336 59.5913 235.881 59.7935 235.394 59.8526C233.647 60.1019 232.386 59.4899 232.386 59.4899C232.386 59.4899 233.615 60.3323 233.451 61.7283C233.288 63.1242 233.524 63.7535 233.524 63.7535C233.34 63.7603 231.747 63.7913 230.752 62.5758C230.329 62.0494 230.092 61.4072 230.075 60.7423C229.737 60.9619 229.453 61.25 229.244 61.5864C228.464 62.8689 229.191 64.3741 229.03 64.4231C228.829 64.4833 227.064 62.3326 227.891 60.1621C228.412 58.7945 229.679 58.1678 230.029 58.0114Z" fill="#86EBF9"/>
<path d="M237.332 75.0416C237.332 75.0416 233.696 71.2086 236.764 68.2628C239.832 65.317 237.725 65.3179 241.164 61.1652C244.604 57.0125 245.287 60.5953 248.241 59.6781C251.196 58.7609 254.604 58.8881 255.855 63.6847C257.105 68.4812 261.576 66.1775 261.727 70.4436C261.879 74.7098 256.881 79.4151 249.834 79.4151C242.786 79.4151 237.332 75.0416 237.332 75.0416Z" fill="#40C2D6"/>
<path d="M252.7 96.9937L230.566 98.2607C227.677 93.833 225.627 90.16 224.236 87.4952C223.051 85.2285 222.18 83.3872 220.097 82.4632C217.616 81.3629 214.877 82.2113 213.402 82.8139L216.929 94.7399C217.497 96.6069 219.369 101.833 224.601 104.697C228.112 106.62 231.473 106.568 235.556 106.453C239.42 106.345 245.774 105.662 253.246 102.357C253.064 100.57 252.883 98.7822 252.7 96.9937Z" fill="#F98A77"/>
<path d="M219.367 194.156C219.237 198.282 219.108 202.408 218.98 206.534C218.977 206.617 218.992 206.7 219.023 206.777C219.055 206.855 219.102 206.926 219.162 206.986C219.222 207.045 219.294 207.093 219.374 207.125C219.454 207.158 219.54 207.174 219.626 207.174H236.48C236.607 207.175 236.732 207.139 236.838 207.072C236.944 207.005 237.027 206.909 237.077 206.796C237.126 206.684 237.141 206.56 237.117 206.44C237.094 206.32 237.034 206.209 236.946 206.121C235.678 204.872 233.403 202.899 231.251 202.409C231.1 202.376 230.967 202.293 230.874 202.175C230.781 202.056 230.736 201.909 230.746 201.761L231.269 194.369C231.275 194.285 231.263 194.2 231.234 194.121C231.205 194.041 231.159 193.968 231.099 193.906C231.04 193.844 230.968 193.794 230.888 193.759C230.808 193.725 230.721 193.706 230.633 193.705L220.023 193.549C219.853 193.546 219.688 193.609 219.565 193.722C219.442 193.836 219.371 193.992 219.367 194.156ZM191.254 188.653L185.061 197.851C184.976 197.978 184.941 198.13 184.964 198.28C184.987 198.429 185.066 198.566 185.186 198.663L195.646 207.173C195.763 207.268 195.911 207.32 196.065 207.32H202.039C202.157 207.32 202.272 207.29 202.372 207.232C202.473 207.174 202.555 207.09 202.61 206.991C202.665 206.891 202.691 206.779 202.685 206.667C202.679 206.554 202.641 206.445 202.576 206.352L198.227 200.12C198.166 200.032 198.129 199.93 198.12 199.825C198.111 199.72 198.13 199.614 198.174 199.518L201.055 193.415C201.124 193.268 201.131 193.102 201.075 192.95C201.02 192.799 200.905 192.674 200.755 192.602L192.092 188.437C191.949 188.367 191.784 188.35 191.629 188.39C191.475 188.43 191.341 188.524 191.254 188.653ZM307.489 192.957L308.131 206.688C308.134 206.751 308.124 206.814 308.101 206.874C308.078 206.933 308.042 206.987 307.997 207.033C307.951 207.079 307.896 207.115 307.836 207.14C307.775 207.165 307.71 207.178 307.644 207.178H292.797C292.707 207.178 292.618 207.154 292.541 207.109C292.464 207.064 292.402 206.999 292.361 206.921C292.32 206.844 292.302 206.757 292.31 206.671C292.317 206.584 292.35 206.501 292.403 206.432C293.268 205.321 295.158 203.287 297.872 202.57L296.539 192.957H307.489ZM326.965 194.187L328.669 202.267C328.669 202.267 326.792 204.375 326.416 206.639C326.405 206.706 326.409 206.775 326.429 206.84C326.448 206.905 326.482 206.966 326.528 207.018C326.574 207.069 326.631 207.111 326.695 207.139C326.76 207.167 326.829 207.182 326.9 207.182H340.936C341.097 207.182 341.255 207.141 341.394 207.063C341.532 206.985 341.647 206.873 341.726 206.738C341.805 206.604 341.845 206.451 341.843 206.297C341.84 206.142 341.795 205.991 341.712 205.859L338.894 201.389C338.204 198.131 337.514 194.874 336.825 191.616L326.965 194.187Z" fill="#1D0A03"/>
<path d="M212.773 82.7201C212.755 82.6544 212.752 82.586 212.763 82.519C212.774 82.452 212.799 82.3879 212.837 82.3306C212.874 82.2733 212.924 82.224 212.982 82.1857C213.04 82.1475 213.106 82.121 213.175 82.108C215.857 81.6009 219.557 81.3946 222.216 83.4327C223.512 84.4255 223.971 85.4957 225.605 88.3839C226.707 90.3317 228.287 93.0025 230.369 96.1529C230.439 96.2592 230.465 96.3872 230.442 96.5112C230.418 96.6353 230.347 96.7462 230.242 96.8216L222.755 102.151C222.696 102.194 222.628 102.223 222.555 102.238C222.483 102.253 222.408 102.253 222.335 102.237C222.263 102.222 222.195 102.192 222.136 102.149C222.077 102.106 222.028 102.051 221.993 101.989L214.25 88.2369C214.23 88.2008 214.214 88.1624 214.204 88.1226L212.773 82.7201Z" fill="#917EEC"/>
<path d="M305.645 81.0707C305.645 81.0707 300.402 80.6787 296.225 85.7718C292.048 90.8649 287.464 99.2888 287.464 99.2888L267.1 99.7805L265.562 104.085C265.562 104.085 285.936 108.514 291.03 106.937C296.124 105.359 299.664 91.7932 299.664 91.7932L305.645 81.0707Z" fill="#F98A77"/>
<path d="M300.096 82.0988C296.895 83.5429 295.716 85.9153 290.368 93.2158C289.235 94.7631 288.273 96.0404 287.614 96.9121C287.519 97.0375 287.466 97.1881 287.463 97.3434C287.46 97.4988 287.506 97.6513 287.596 97.7803C289.4 100.381 291.852 102.506 294.729 103.962C294.895 104.045 295.087 104.069 295.27 104.028C295.454 103.987 295.615 103.885 295.726 103.739L302.272 95.241C302.337 95.1562 302.384 95.0589 302.407 94.9556L305.427 82.0051C305.453 81.8907 305.452 81.7721 305.423 81.6585C305.393 81.5449 305.337 81.4393 305.259 81.3499C305.18 81.2605 305.081 81.1898 304.969 81.1431C304.858 81.0965 304.736 81.0752 304.615 81.081C302.527 81.1635 301.045 81.6707 300.096 82.0988Z" fill="#FECD50"/>
<path d="M275.586 103.098C275.587 103.437 275.464 103.765 275.239 104.027C275.014 104.288 274.701 104.465 274.354 104.528C269.386 105.428 264.342 105.888 259.286 105.903C254.049 105.92 248.823 105.459 243.677 104.528C243.33 104.465 243.017 104.287 242.792 104.026C242.567 103.764 242.444 103.435 242.445 103.096V97.4562C242.446 97.071 242.606 96.7019 242.889 96.4299C243.173 96.1579 243.557 96.0052 243.958 96.0052H274.072C274.473 96.0052 274.859 96.1585 275.143 96.4314C275.427 96.7043 275.586 97.0744 275.586 97.4605V103.098ZM282.772 72.3132C281.237 73.0808 280.537 74.3281 279.711 75.8581C278.661 77.8147 277.984 79.936 277.711 82.122C277.696 82.2326 277.642 82.335 277.558 82.4119C277.474 82.4888 277.365 82.5354 277.249 82.544C275.788 82.6525 274.318 82.4708 272.933 82.0102C269.462 80.8472 267.638 78.2487 266.957 77.1002C266.902 77.0033 266.882 76.8911 266.901 76.7819C266.92 76.6726 266.977 76.5728 267.062 76.4985C269.739 74.1656 271.064 71.8929 271.711 70.5424C272.605 68.6866 272.694 67.5846 272.557 66.6743C272.435 65.8715 272.136 65.1031 271.68 64.4204C271.639 64.3567 271.613 64.2845 271.605 64.2095C271.597 64.1346 271.608 64.0589 271.635 63.9884C271.663 63.9179 271.707 63.8546 271.765 63.8034C271.822 63.7522 271.891 63.7145 271.967 63.6932L273.177 63.3494C273.282 63.3193 273.395 63.3228 273.498 63.3593C273.601 63.3959 273.689 63.4636 273.748 63.5522L276.073 67.0173C276.117 67.0836 276.178 67.1385 276.25 67.1774C276.321 67.2162 276.401 67.2378 276.483 67.2402C276.566 67.2427 276.647 67.2259 276.721 67.1914C276.795 67.1569 276.859 67.1057 276.908 67.0422L278.747 64.6431C278.787 64.5906 278.838 64.5465 278.897 64.5133C278.955 64.48 279.02 64.4584 279.087 64.4496C279.154 64.4408 279.223 64.445 279.289 64.462C279.354 64.479 279.416 64.5084 279.469 64.5485L281.102 65.77C281.182 65.8293 281.241 65.91 281.273 66.0018C281.305 66.0936 281.308 66.1924 281.281 66.2857L280.444 69.1602C280.42 69.241 280.419 69.3263 280.439 69.4078C280.46 69.4894 280.502 69.5644 280.562 69.6256C280.622 69.6869 280.697 69.7323 280.78 69.7576C280.863 69.7828 280.952 69.787 281.037 69.7697L284.75 69.0158C284.854 68.9947 284.962 69.0055 285.06 69.0467C285.157 69.0879 285.239 69.1573 285.293 69.2453L286.354 70.9739C286.401 71.0498 286.425 71.1365 286.425 71.2247C286.425 71.313 286.4 71.3995 286.352 71.475C286.305 71.5506 286.237 71.6123 286.156 71.6536C286.075 71.695 285.983 71.7144 285.892 71.7098C285.031 71.6633 283.894 71.7519 282.772 72.3132Z" fill="#40C2D6"/>
<path d="M289.821 71.1706C289.95 71.9735 289.483 72.7333 288.772 72.9801C287.933 73.2697 286.903 72.7944 286.599 71.8626C286.599 71.8626 285.526 74.2187 283.023 72.478C280.52 70.7374 282.344 68.4311 282.344 68.4311C281.505 68.64 280.68 68.3116 280.352 67.7013C280.042 67.1245 280.294 66.5177 280.337 66.4171C280.186 66.4807 278.979 66.9672 277.754 66.338C276.29 65.5867 276.204 63.963 276.203 63.8959C275.936 64.2153 275.593 64.4673 275.202 64.63C273.956 65.132 272.753 64.4581 272.597 64.3644C272.597 64.3644 271.256 66.4274 269.502 64.7357C267.748 63.044 269.01 61.538 269.01 61.538C267.438 60.8736 266.679 59.1974 267.164 57.7988C267.716 56.212 269.757 55.306 271.557 56.0719C271.601 54.1069 273.2 52.6095 274.93 52.5992C276.286 52.5914 277.584 53.4966 278.121 54.865C279.099 53.084 281.197 52.3387 282.817 52.974C284.004 53.4407 284.824 54.6072 284.962 55.9542C286.75 54.3605 289.394 54.4928 290.729 55.9189C291.753 57.0106 291.924 58.771 291.1 60.2607C291.1 60.2607 294.474 60.9939 293.112 63.4661C294.569 63.8736 295.629 64.9824 295.798 66.2787C295.815 66.3973 296.018 68.1818 294.65 69.0577C293.85 69.5735 292.972 69.4781 292.693 69.4377C292.919 70.2466 292.534 71.0872 291.799 71.4431C291.478 71.591 291.119 71.6441 290.767 71.5956C290.415 71.5471 290.086 71.3992 289.821 71.1706Z" fill="#86EBF9"/>
<path d="M288.176 69.4171C288.129 69.4194 288.083 69.4034 288.047 69.3728C288.012 69.3422 287.991 69.2994 287.989 69.2538C287.986 69.2082 288.003 69.1635 288.035 69.1297C288.067 69.0958 288.111 69.0755 288.158 69.0733C289.171 68.9727 289.963 68.1363 289.886 67.2483C289.827 66.5667 289.272 65.9744 288.506 65.775C288.471 65.7658 288.44 65.7464 288.416 65.7196C288.393 65.6927 288.379 65.6597 288.375 65.6248C288.372 65.59 288.38 65.555 288.398 65.5245C288.416 65.4941 288.443 65.4696 288.476 65.4544C288.659 65.381 288.809 65.2465 288.898 65.0755C288.987 64.9045 289.009 64.7084 288.96 64.5231C288.911 64.3378 288.794 64.1756 288.631 64.0663C288.468 63.957 288.27 63.9078 288.072 63.9278C288.037 63.9298 288.003 63.9223 287.973 63.9061C287.943 63.8899 287.919 63.8658 287.903 63.8366C287.887 63.8076 287.88 63.7747 287.883 63.742C287.886 63.7092 287.898 63.6779 287.919 63.6518C288.344 63.1163 288.469 62.4553 288.239 61.9662C288.147 61.7884 288.019 61.6299 287.862 61.4999C287.706 61.3699 287.524 61.271 287.328 61.2089C287.047 61.1157 286.75 61.0772 286.454 61.0957C286.158 61.1141 285.868 61.1891 285.602 61.3163C285.581 61.3261 285.558 61.3317 285.535 61.333C285.511 61.3342 285.488 61.331 285.466 61.3234C285.444 61.3159 285.423 61.3043 285.406 61.2892C285.388 61.2741 285.374 61.2559 285.364 61.2355C285.354 61.2151 285.348 61.193 285.346 61.1705C285.345 61.1479 285.349 61.1253 285.356 61.104C285.364 61.0827 285.376 61.0631 285.392 61.0463C285.408 61.0295 285.427 61.0158 285.448 61.006C285.757 60.8593 286.093 60.7731 286.437 60.7524C286.781 60.7318 287.126 60.777 287.451 60.8857C287.692 60.9639 287.914 61.0871 288.105 61.2481C288.296 61.4092 288.452 61.6051 288.564 61.8243C288.816 62.3573 288.743 63.0192 288.386 63.6071C288.585 63.6448 288.771 63.7306 288.926 63.8565C289.082 63.9823 289.201 64.1441 289.273 64.3266C289.349 64.5403 289.359 64.7707 289.301 64.9896C289.243 65.2085 289.12 65.4065 288.947 65.5593C289.676 65.8678 290.184 66.5048 290.246 67.22C290.341 68.3082 289.423 69.2933 288.2 69.4154L288.176 69.4171ZM271.924 62.3839C271.88 62.3838 271.838 62.3682 271.805 62.3401C271.435 62.0271 271.196 61.5954 271.133 61.1254C271.07 60.6555 271.187 60.1795 271.462 59.7862C271.737 59.393 272.151 59.1094 272.627 58.9884C273.104 58.8674 273.61 58.9173 274.051 59.1287C274.094 58.9169 274.196 58.7204 274.347 58.5608C274.498 58.4012 274.692 58.2845 274.907 58.2235C275.122 58.1624 275.351 58.1594 275.568 58.2148C275.784 58.2701 275.981 58.3817 276.137 58.5373C276.249 58.0488 276.54 57.6153 276.957 57.3155C277.373 57.0156 277.888 56.8693 278.407 56.9029C278.926 56.9366 279.415 57.1482 279.786 57.4991C280.157 57.8501 280.385 58.3172 280.428 58.8158C280.43 58.8383 280.427 58.861 280.42 58.8825C280.413 58.904 280.401 58.924 280.386 58.9412C280.371 58.9585 280.352 58.9727 280.332 58.983C280.311 58.9933 280.288 58.9996 280.264 59.0014C280.217 59.0053 280.17 58.9909 280.134 58.9616C280.098 58.9323 280.075 58.8903 280.071 58.845C280.035 58.3891 279.815 57.965 279.457 57.6635C279.1 57.362 278.634 57.2071 278.159 57.2321C277.684 57.257 277.238 57.4598 276.917 57.797C276.596 58.1342 276.425 58.5789 276.441 59.0358C276.441 59.0763 276.427 59.1157 276.401 59.147C276.374 59.1784 276.337 59.1998 276.295 59.2074C276.254 59.215 276.211 59.2083 276.175 59.1886C276.138 59.1688 276.11 59.1373 276.095 59.0994C276.028 58.9046 275.89 58.7398 275.706 58.6355C275.522 58.5312 275.305 58.4944 275.096 58.5321C274.886 58.5698 274.698 58.6793 274.566 58.8404C274.433 59.0015 274.367 59.2032 274.377 59.408C274.379 59.4393 274.371 59.4704 274.355 59.4978C274.339 59.5252 274.316 59.548 274.288 59.5636C274.259 59.5788 274.226 59.5859 274.193 59.5843C274.16 59.5826 274.128 59.5722 274.101 59.5542C273.75 59.3228 273.32 59.2288 272.899 59.2915C272.478 59.3541 272.098 59.5686 271.836 59.8912C271.574 60.2139 271.45 60.6205 271.489 61.0282C271.527 61.4359 271.726 61.814 272.045 62.0857C272.072 62.1087 272.091 62.1392 272.1 62.1731C272.109 62.207 272.107 62.2426 272.094 62.2753C272.081 62.3079 272.058 62.336 272.028 62.3559C271.999 62.3758 271.963 62.3865 271.927 62.3865L271.924 62.3839Z" fill="#40C2D6"/>
<path d="M241.594 71.9367C240.482 71.9367 239.616 71.6255 239.226 71.0324C238.901 70.5373 238.868 69.8041 238.864 69.5634C238.845 69.1778 238.906 68.7926 239.043 68.4296C239.132 68.1631 239.202 67.9525 239.146 67.5777C239.028 66.7809 238.441 65.966 238.431 65.9574C238.416 65.9391 238.405 65.9179 238.398 65.8952C238.392 65.8726 238.39 65.8489 238.394 65.8256C238.397 65.8024 238.406 65.7801 238.419 65.7601C238.431 65.7401 238.448 65.7228 238.468 65.7093C238.488 65.6959 238.511 65.6865 238.535 65.6817C238.559 65.677 238.584 65.6771 238.607 65.6819C238.631 65.6867 238.654 65.6961 238.674 65.7097C238.694 65.7232 238.711 65.7405 238.723 65.7606C238.75 65.7958 239.367 66.6502 239.497 67.5296C239.549 67.8687 239.508 68.2149 239.38 68.5345C239.257 68.8593 239.203 69.2044 239.221 69.5496C239.242 70.1359 239.346 70.5725 239.528 70.8485C240.055 71.6522 241.77 71.8241 243.7 71.268C243.722 71.2609 243.746 71.2582 243.77 71.2601C243.794 71.262 243.817 71.2685 243.838 71.2791C243.859 71.2897 243.878 71.3043 243.893 71.322C243.908 71.3396 243.919 71.36 243.926 71.382C243.933 71.4039 243.935 71.427 243.933 71.4497C243.93 71.4725 243.923 71.4946 243.911 71.5146C243.9 71.5347 243.884 71.5523 243.866 71.5665C243.847 71.5807 243.825 71.5911 243.802 71.5972C243.087 71.8116 242.343 71.9259 241.594 71.9367ZM242.958 68.4124C241.94 68.4124 241.099 68.0385 240.641 67.3809C240.13 66.6477 240.128 65.6187 240.633 64.4841C240.652 64.4421 240.687 64.409 240.731 64.392C240.775 64.375 240.824 64.3755 240.868 64.3934C240.911 64.4113 240.946 64.4451 240.964 64.4874C240.981 64.5297 240.981 64.5771 240.962 64.619C240.505 65.6437 240.497 66.5565 240.938 67.1892C241.336 67.76 242.1 68.0892 243.011 68.0668C244 68.0531 244.669 67.8339 244.799 67.4823C244.906 67.1926 244.655 66.7809 244.09 66.3219C243.149 65.5551 243.643 64.662 243.934 64.1282C243.999 64.0183 244.055 63.9033 244.1 63.7844C244.025 63.7768 243.949 63.7791 243.875 63.7912C242.704 63.9305 242.68 64.4325 242.68 64.4377C242.68 64.4832 242.662 64.527 242.628 64.5592C242.594 64.5915 242.549 64.6096 242.502 64.6096C242.456 64.6096 242.412 64.5928 242.379 64.5626C242.345 64.5324 242.325 64.491 242.323 64.4471C242.323 64.4136 242.31 63.6322 243.831 63.4508C244.05 63.4242 244.291 63.4199 244.408 63.5815C244.538 63.7637 244.408 63.995 244.25 64.2872C243.893 64.9345 243.653 65.5139 244.322 66.0571C245.201 66.7732 245.25 67.2889 245.135 67.5958C244.947 68.1038 244.194 68.3918 243.015 68.409L242.958 68.4124Z" fill="#86EBF9"/>
<path d="M243.854 74.0108C243.825 74.011 243.797 74.0044 243.771 73.9917C243.745 73.979 243.723 73.9604 243.707 73.9377C243.683 73.9033 243.095 73.0824 243.285 72.0982C243.406 71.4672 243.821 70.9205 244.504 70.4736C246.606 69.1085 247.314 68.6486 246.593 67.1942C245.838 65.6736 245.436 64.6662 246.612 63.1911C247.059 62.6281 246.906 62.3066 246.692 61.863C246.45 61.3645 246.15 60.7456 246.899 59.7278C246.927 59.6905 246.968 59.6653 247.015 59.6575C247.062 59.6498 247.11 59.6602 247.149 59.6866C247.187 59.7129 247.214 59.753 247.222 59.7979C247.23 59.8429 247.219 59.8891 247.191 59.9264C246.561 60.78 246.782 61.2355 247.013 61.7186C247.229 62.1648 247.474 62.6711 246.893 63.4008C245.89 64.6584 246.115 65.4381 246.913 67.0455C247.766 68.7647 246.806 69.3913 244.702 70.7589C244.097 71.1509 243.738 71.6185 243.634 72.1575C243.471 72.9982 243.992 73.734 243.998 73.7409C244.025 73.7783 244.035 73.8244 244.027 73.8692C244.019 73.914 243.992 73.9538 243.953 73.9798C243.924 73.9994 243.89 74.0102 243.854 74.0108ZM250.348 74.4062C250.314 74.406 250.28 74.3961 250.251 74.3778C250.206 74.3494 249.178 73.6592 250.185 71.3151C250.641 70.2535 250.31 69.5804 249.991 68.9289C249.671 68.2773 249.348 67.6206 249.991 66.7352C250.379 66.1989 250.863 65.7333 251.421 65.3599C251.907 65.016 252.151 64.8381 252.102 64.2424C252.073 63.8676 251.881 63.4868 251.677 63.0837C251.242 62.2232 250.751 61.2588 251.712 60.0742C251.741 60.0404 251.784 60.0189 251.83 60.0144C251.876 60.0099 251.922 60.0226 251.958 60.0499C251.994 60.0772 252.018 60.1171 252.025 60.161C252.032 60.2049 252.02 60.2496 251.993 60.2857C251.17 61.2992 251.569 62.0908 251.993 62.9272C252.202 63.3415 252.419 63.7705 252.454 64.2097C252.516 64.9988 252.125 65.2782 251.629 65.6332C251.103 65.9845 250.645 66.4235 250.279 66.9295C249.756 67.6515 250.001 68.1501 250.311 68.7802C250.648 69.4678 251.026 70.2415 250.512 71.4449C249.629 73.5002 250.44 74.0856 250.448 74.0907C250.48 74.1115 250.504 74.1416 250.516 74.1764C250.529 74.2113 250.529 74.2491 250.518 74.2842C250.506 74.3194 250.483 74.35 250.452 74.3717C250.421 74.3933 250.384 74.4048 250.346 74.4045L250.348 74.4062Z" fill="#86EBF9"/>
<path d="M263.091 55.4154C263.091 55.4154 264.82 57.9547 263.253 62.4219L264.616 62.6334C264.616 62.6334 266.555 59.0695 265.542 54.6968C265.342 54.509 265.09 54.3797 264.816 54.324C264.542 54.2683 264.257 54.2885 263.995 54.3822C263.273 54.6478 263.102 55.3639 263.091 55.4154Z" fill="#81CDD3"/>
<path d="M260.023 61.4686C260.023 61.4686 256.5 59.0953 254.212 61.258C251.924 63.4208 252.826 74.5336 255.077 77.1605C257.327 79.7874 258.831 76.7977 260.398 77.9874C261.964 79.1771 262.676 79.9834 264.744 78.663C266.812 77.3427 265.962 80.5679 269.091 79.3387C272.22 78.1094 276.256 65.5371 273.353 62.2208C272.827 61.6312 272.132 61.2037 271.355 60.9916C269.47 60.4913 267.742 61.5555 267.258 61.8752C266.28 60.2919 264.5 59.4306 262.803 59.6953C261.135 59.9558 260.211 61.2039 260.023 61.4686Z" fill="#FECD50"/>
<path d="M260.23 77.2256C260.187 77.2263 260.146 77.2123 260.113 77.1864C260.08 77.1604 260.058 77.124 260.051 77.0838C260.039 77.0211 258.9 70.8088 258.652 66.8435C258.4 62.8146 259.834 61.404 259.895 61.3464C259.93 61.317 259.974 61.3013 260.02 61.3026C260.066 61.3039 260.11 61.3221 260.142 61.3535C260.174 61.3849 260.193 61.427 260.193 61.4711C260.194 61.5152 260.178 61.558 260.147 61.5906C260.129 61.6086 258.768 62.9771 259.009 66.8229C259.256 70.765 260.392 76.966 260.403 77.0236C260.407 77.0459 260.407 77.0687 260.402 77.0907C260.397 77.1128 260.387 77.1337 260.374 77.1522C260.36 77.1707 260.343 77.1865 260.323 77.1987C260.304 77.2108 260.281 77.2191 260.258 77.2231L260.23 77.2256ZM265.278 77.0666C265.259 77.0667 265.241 77.0638 265.223 77.058C265.2 77.0511 265.18 77.04 265.162 77.0254C265.144 77.0107 265.129 76.9928 265.118 76.9727C265.108 76.9526 265.101 76.9306 265.099 76.9081C265.097 76.8856 265.1 76.8629 265.107 76.8414C265.132 76.7701 267.527 69.6544 268.047 66.8951C268.556 64.1951 267.128 61.9894 267.114 61.9679C267.09 61.9295 267.083 61.8839 267.094 61.8406C267.105 61.7973 267.132 61.7597 267.171 61.7358C267.211 61.7118 267.258 61.7034 267.303 61.7122C267.349 61.721 267.389 61.7464 267.415 61.7831C267.477 61.8768 268.935 64.1203 268.398 66.9561C267.873 69.7386 265.472 76.8758 265.448 76.948C265.436 76.9825 265.414 77.0125 265.383 77.0338C265.353 77.0551 265.316 77.0666 265.278 77.0666Z" fill="#D7981A"/>
<path d="M259.457 102.263H257.835C244.572 102.263 233.554 94.7475 232.574 85.0325L231.611 75.4841C231.521 74.5652 232.368 73.7761 233.449 73.7761H284.581C285.663 73.7761 286.512 74.5652 286.42 75.4841L285.511 84.4918C284.499 94.512 273.137 102.263 259.457 102.263Z" fill="#86EBF9"/>
<path d="M217.428 71.5825H207.944V86.9486H217.428V71.5825Z" fill="#FC9C86"/>
<path d="M311.735 71.1699H302.251V86.536H311.735V71.1699Z" fill="#FC9C86"/>
<path d="M320.206 117.214C318.849 111.552 318.195 105.756 318.259 99.9463C318.355 91.5094 319.988 88.0951 317.502 84.9679C313.926 80.4714 304.224 79.513 299.208 83.4671C295.364 86.4997 295.349 91.9873 295.324 102.963C295.312 108.188 295.695 113.407 296.469 118.579C297.619 118.433 299.363 118.248 301.495 118.164C305.242 118.017 307.439 118.435 309.712 118.358C313.236 118.237 316.744 117.854 320.206 117.214Z" fill="#FECD50"/>
<path d="M295.967 110.515C295.851 110.599 295.755 110.705 295.684 110.826C295.614 110.948 295.571 111.082 295.558 111.221C294.289 124.029 293.496 138.126 293.548 153.341C293.597 168.052 294.433 182.752 296.051 197.381C296.078 197.62 296.194 197.842 296.377 198.006C296.56 198.17 296.798 198.265 297.048 198.273L307.329 198.654C307.468 198.659 307.606 198.638 307.736 198.591C307.866 198.543 307.985 198.472 308.086 198.38C308.187 198.288 308.268 198.177 308.323 198.055C308.379 197.933 308.409 197.801 308.411 197.667C308.629 183.031 308.847 168.395 309.064 153.758C309.065 153.714 309.069 153.67 309.075 153.627C310.207 146.165 311.342 138.703 312.478 131.241C312.516 131.001 312.643 130.784 312.835 130.627C318.234 126.127 319.243 118.538 315.544 113.313C311.422 107.49 302.4 105.946 295.967 110.515Z" fill="#287EEF"/>
<path d="M318.408 111.604C318.613 111.603 318.814 111.661 318.985 111.771C319.156 111.88 319.29 112.036 319.369 112.218C320.511 114.856 321.462 117.567 322.214 120.331C323.316 124.353 323.989 128.471 324.223 132.624C324.591 138.488 327.978 154.906 339.158 196.254C339.196 196.395 339.202 196.543 339.175 196.686C339.148 196.83 339.089 196.966 339.001 197.086C338.914 197.205 338.8 197.304 338.668 197.377C338.537 197.45 338.39 197.494 338.239 197.506L326.429 198.478C326.192 198.497 325.956 198.439 325.758 198.311C325.561 198.184 325.415 197.995 325.345 197.777C323.915 193.317 321.8 186.774 319.177 178.882C312.903 160.039 310.848 156.036 309.352 149.478C306.555 137.215 304.782 117.492 304.377 112.687C304.366 112.549 304.384 112.41 304.431 112.28C304.478 112.149 304.552 112.029 304.65 111.927C304.748 111.825 304.866 111.744 304.998 111.689C305.13 111.633 305.272 111.605 305.416 111.605L318.408 111.604Z" fill="#287EEF"/>
<path d="M253.266 89.1741C253.005 88.7125 252.305 89.3623 251.56 89.7852C251.129 90.0317 250.659 90.2105 250.17 90.3147C250.706 89.8849 251.6 89.1457 252.127 88.5706C252.957 87.6612 253.15 87.1093 252.694 86.7655C252.357 86.5076 252.028 86.836 250.964 87.7042C250.412 88.1537 249.766 88.6188 249.035 88.9351C249.336 88.5981 249.969 87.9792 250.568 87.3131C251.437 86.3486 252.433 85.422 251.875 84.8323C251.544 84.4884 250.67 85.2028 249.698 86.0116C249.015 86.5781 248.299 87.1764 247.731 87.4454C248.226 86.9108 248.408 86.6202 248.767 86.2291C249.457 85.477 250.426 84.5701 250.185 83.9632C250.147 83.8544 250.071 83.7611 249.971 83.6985C249.417 83.383 248.389 84.4394 246.909 85.3987C246.088 85.929 245.214 86.378 244.299 86.7388C244.275 86.3658 244.137 84.7884 242.909 84.0217C242.863 83.9925 242.037 83.4862 241.742 83.7329C241.447 83.9796 242.048 84.7386 242.15 86.3202C242.176 86.7501 242.165 87.1814 242.118 87.6096C242.055 88.1472 241.941 88.678 241.778 89.1956C241.498 90.27 241.766 91.776 242.481 92.6528C244.025 94.5362 247.731 93.6053 248.195 93.4823C249.934 93.0225 250.973 92.0442 251.755 91.3867C252.81 90.5039 253.478 89.5446 253.266 89.1741Z" fill="#FC9C86"/>
<path d="M241.929 88.4907C241.796 88.8002 241.642 89.1234 241.458 89.4561C240.981 90.3236 240.388 91.127 239.693 91.8457C240.13 92.8444 240.734 93.7678 241.481 94.5792C242.211 95.3692 242.937 96.3612 243.486 95.9374C243.985 95.5523 244.732 94.8526 245.4 94.4159C246.136 93.9345 247.117 93.889 248.202 93.4789C251.076 91.3755 243.333 85.2277 241.929 88.4907ZM265.114 104.783C265.179 104.263 266.079 104.619 266.934 104.75C267.428 104.826 267.932 104.826 268.426 104.75C267.759 104.539 266.647 104.168 265.94 103.819C264.82 103.266 264.429 102.821 264.721 102.34C264.937 101.984 265.368 102.168 266.688 102.597C267.373 102.82 268.152 103.027 268.953 103.061C268.543 102.854 267.719 102.502 266.906 102.094C265.73 101.504 264.449 100.992 264.744 100.247C264.922 99.8081 266.005 100.167 267.22 100.576C268.071 100.861 268.966 101.165 269.595 101.215C268.93 100.893 268.649 100.687 268.164 100.45C267.235 99.9938 265.987 99.4926 265.98 98.8436C265.974 98.7288 266.009 98.6153 266.078 98.5213C266.473 98.0331 267.832 98.652 269.576 99.0216C270.542 99.225 271.527 99.3339 272.515 99.3465C272.395 98.9906 271.921 97.4743 272.769 96.3285C272.801 96.2846 273.376 95.5213 273.745 95.6468C274.113 95.7723 273.845 96.6904 274.353 98.1972C274.493 98.6054 274.668 99.0018 274.875 99.3826C275.138 99.8604 275.447 100.314 275.797 100.737C276.478 101.64 276.799 103.136 276.467 104.202C275.752 106.499 271.948 106.942 271.469 106.992C269.676 107.178 268.34 106.635 267.357 106.304C266.044 105.855 265.061 105.203 265.114 104.783Z" fill="#FC9C86"/>
<path d="M275.397 100.143C275.638 100.385 275.906 100.631 276.201 100.876C276.977 101.514 277.836 102.051 278.756 102.475C278.733 103.557 278.525 104.628 278.142 105.646C277.765 106.639 277.468 107.819 276.797 107.618C276.185 107.437 275.222 107.049 274.435 106.879C273.567 106.692 272.636 106.996 271.47 106.998C267.992 106.062 272.843 97.605 275.397 100.143Z" fill="#FC9C86"/>
<path d="M308.28 76.5784C306.209 80.058 302.254 80.6425 302.254 80.6425V79.2672C305.151 79.0299 308.28 76.5784 308.28 76.5784Z" fill="#1D0A03"/>
<path d="M312.38 79.8948H301.774C301.713 79.8948 301.663 79.9425 301.663 80.0014V83.7062C301.663 83.7651 301.713 83.8128 301.774 83.8128H312.38C312.441 83.8128 312.49 83.7651 312.49 83.7062V80.0014C312.49 79.9425 312.441 79.8948 312.38 79.8948Z" fill="#FECD50"/>
<path d="M301.665 81.5312C301.665 81.5312 299.104 89.0518 299.385 90.4246C299.666 91.7973 303.933 92.2031 305.039 91.1122C306.145 90.0214 309.912 82.286 312.492 81.704C313.095 81.7298 313.684 81.8902 314.212 82.1725C312.924 83.2187 311.789 84.4277 310.837 85.7665C309.726 87.3309 307.638 90.4383 307.767 93.6102C307.993 99.1442 318.485 105.038 318.485 105.038L320.851 115.984L306.85 119.662L295.103 116.07V100.598C295.103 100.598 293.267 95.5632 295.984 92.6604L299.273 82.5172C299.986 82.0248 300.802 81.6883 301.665 81.5312Z" fill="#287EEF"/>
<path d="M314.502 82.7107C314.502 82.7107 318.615 84.0087 319.747 87.4763C320.388 89.4301 319.824 91.2284 319.3 92.5796C317.258 97.8171 312.877 109.051 301.984 111.581C298.985 112.277 296.728 112.056 292.205 111.581C286.197 110.945 280.334 109.391 274.836 106.978C275.329 105.052 275.821 103.125 276.313 101.199L298.742 104.186L309.571 91.8447C309.571 91.8447 308.101 85.2001 314.502 82.7107Z" fill="#FC9C86"/>
<path d="M313.942 82.3154C314.034 82.2645 314.136 82.232 314.242 82.22C314.348 82.2081 314.455 82.2168 314.557 82.2458C315.845 82.6017 318.734 83.628 320.035 86.2291C320.953 88.0618 320.729 89.9692 320.164 92.0408C318.365 98.6416 313.708 104.666 310.856 107.959C310.728 108.105 310.547 108.2 310.35 108.224C310.152 108.248 309.952 108.199 309.791 108.087L301.253 102.194C301.091 102.082 300.979 101.916 300.94 101.728C300.9 101.54 300.937 101.344 301.041 101.181C303.313 97.6279 305.585 94.0749 307.857 90.5219C307.906 90.4472 307.94 90.3644 307.957 90.2778C308.219 89.0079 308.697 87.7881 309.372 86.6675C310.476 84.8594 312.051 83.3594 313.942 82.3154Z" fill="#FECD50"/>
<path d="M218.432 79.3566C214.191 80.1681 206.134 74.5601 205.29 70.4822C205.084 69.5103 205.079 68.5088 205.277 67.5351C205.474 66.5615 205.87 65.6349 206.44 64.8086C207.011 63.9824 207.746 63.2727 208.603 62.7203C209.46 62.168 210.422 61.7839 211.434 61.59C212.446 61.3962 213.487 61.3964 214.499 61.5908C215.511 61.7851 216.473 62.1697 217.329 62.7225C218.186 63.2753 218.92 63.9854 219.491 64.8119C220.061 65.6385 220.456 66.5652 220.653 67.539C220.884 68.6325 221.047 69.7381 221.143 70.8501C221.179 71.2902 221.214 71.751 221.24 72.2117C221.422 75.375 221.211 78.8237 218.432 79.3566Z" fill="#FC9C86"/>
<path d="M218.879 69.5367C218.799 69.5525 218.716 69.545 218.64 69.5153C218.565 69.4856 218.5 69.4349 218.455 69.3698C218.409 69.3046 218.385 69.2279 218.384 69.1494C218.384 69.0708 218.408 68.994 218.454 68.9287C218.499 68.8634 218.563 68.8124 218.639 68.7824C218.714 68.7523 218.797 68.7445 218.877 68.7599C218.957 68.7754 219.031 68.8133 219.089 68.869C219.146 68.9246 219.185 68.9955 219.201 69.0726C219.222 69.1751 219.2 69.2815 219.14 69.3685C219.079 69.4555 218.986 69.516 218.879 69.5367ZM220.131 66.6691C220.181 66.9029 219.39 66.6107 218.418 66.9029C217.856 67.0749 217.123 67.4531 216.955 67.2571C216.619 66.872 217.188 66.3631 218.089 66.1499C219.079 65.9196 220.088 66.4353 220.131 66.6691ZM213.916 70.0869C213.931 70.1636 213.922 70.243 213.891 70.3151C213.86 70.3872 213.807 70.4487 213.739 70.4918C213.671 70.5349 213.591 70.5578 213.51 70.5574C213.429 70.5571 213.349 70.5336 213.282 70.4899C213.215 70.4462 213.162 70.3843 213.131 70.312C213.1 70.2396 213.093 70.1601 213.109 70.0835C213.125 70.0069 213.164 69.9366 213.222 69.8815C213.28 69.8264 213.353 69.789 213.433 69.774C213.54 69.7543 213.651 69.7761 213.741 69.8347C213.832 69.8934 213.894 69.984 213.916 70.0869ZM214.463 67.735C214.384 67.9792 213.554 67.8966 212.968 67.9482C211.952 68.0342 211.341 68.5981 211.291 68.3608C211.241 68.1236 211.967 67.2777 212.972 67.1299C213.887 66.9958 214.616 67.2571 214.463 67.735ZM217.413 73.6559C217.395 73.6599 217.377 73.6622 217.359 73.6628C217.321 73.662 217.284 73.6496 217.254 73.6274C217.224 73.6051 217.202 73.5741 217.191 73.539C217.184 73.5184 216.565 71.4966 216.312 70.2725C216.307 70.2504 216.307 70.2276 216.311 70.2054C216.316 70.1833 216.325 70.1622 216.338 70.1433C216.351 70.1245 216.367 70.1083 216.387 70.0957C216.406 70.083 216.428 70.0742 216.451 70.0697C216.498 70.062 216.546 70.072 216.585 70.0977C216.625 70.1233 216.652 70.1626 216.662 70.2072C216.912 71.4175 217.527 73.4255 217.531 73.4461C217.543 73.489 217.538 73.5348 217.516 73.5739C217.494 73.613 217.457 73.6424 217.413 73.6559ZM218.5 74.9693C218.142 76.3103 216.569 76.3825 215.371 75.2857L218.5 74.9693Z" fill="#1D0A03"/>
<path d="M313.673 69.6158C313.094 73.7418 305.419 79.8174 301.128 79.2604C298.325 78.8959 297.888 75.4644 297.863 72.2977C297.863 71.8335 297.863 71.3728 297.87 70.9326C297.896 69.8166 297.989 68.703 298.149 67.5974C298.428 65.6181 299.512 63.8262 301.165 62.6159C302.817 61.4056 304.902 60.876 306.961 61.1436C309.019 61.4113 310.883 62.4542 312.142 64.0431C313.401 65.6319 313.951 67.6365 313.673 69.6158Z" fill="#FC9C86"/>
<path d="M300.513 69.1447C300.503 69.2221 300.469 69.2948 300.415 69.3536C300.362 69.4125 300.292 69.4548 300.213 69.4752C300.135 69.4956 300.052 69.4933 299.975 69.4685C299.898 69.4437 299.83 69.3976 299.781 69.3358C299.731 69.2741 299.701 69.1996 299.695 69.1217C299.69 69.0439 299.708 68.9661 299.748 68.8982C299.788 68.8303 299.848 68.7754 299.921 68.7403C299.993 68.7052 300.075 68.6916 300.156 68.7011C300.264 68.7153 300.362 68.7697 300.429 68.8526C300.496 68.9356 300.526 69.0404 300.513 69.1447ZM301.826 67.0954C301.668 67.3017 300.91 66.9648 300.342 66.8272C299.351 66.5934 298.582 66.9338 298.614 66.6966C298.647 66.4593 299.619 65.8817 300.621 66.057C301.533 66.2152 302.133 66.6931 301.826 67.0954ZM305.86 69.8427C305.848 69.9198 305.814 69.9921 305.76 70.0504C305.706 70.1088 305.636 70.1505 305.557 70.1704C305.479 70.1904 305.396 70.1876 305.32 70.1625C305.243 70.1374 305.176 70.091 305.126 70.0293C305.077 69.9675 305.048 69.8931 305.042 69.8154C305.036 69.7376 305.055 69.66 305.095 69.5924C305.135 69.5247 305.195 69.4699 305.268 69.4349C305.34 69.3999 305.422 69.3863 305.502 69.3957C305.611 69.4098 305.709 69.4647 305.776 69.5484C305.843 69.6321 305.873 69.7379 305.86 69.8427ZM307.551 67.8587C307.519 68.096 306.872 67.5734 305.852 67.5458C305.266 67.5287 304.44 67.6627 304.347 67.4221C304.161 66.9544 304.873 66.6484 305.795 66.7344C306.807 66.8169 307.583 67.6215 307.551 67.8587ZM302.666 70.0593C302.487 71.3005 302.005 73.3532 301.997 73.3739C301.989 73.4115 301.967 73.4452 301.936 73.4695C301.905 73.4938 301.866 73.5074 301.826 73.508C301.812 73.5096 301.797 73.5096 301.783 73.508C301.737 73.4973 301.697 73.4697 301.672 73.431C301.648 73.3924 301.64 73.3459 301.651 73.3017C301.651 73.281 302.137 71.2386 302.312 70.018C302.314 69.9954 302.322 69.9735 302.333 69.9536C302.345 69.9338 302.36 69.9164 302.379 69.9025C302.398 69.8887 302.419 69.8787 302.442 69.8731C302.465 69.8675 302.489 69.8665 302.512 69.8702C302.559 69.8762 302.601 69.8993 302.629 69.9347C302.658 69.97 302.671 70.0147 302.666 70.0593Z" fill="#1D0A03"/>
<path d="M202.487 111.639C202.226 111.63 201.97 111.705 201.759 111.853C201.548 112 201.395 112.211 201.324 112.453C200.534 115.119 200.04 117.858 199.851 120.625C199.404 127.281 200.924 131.767 202.042 137.012C202.99 141.468 203.945 147.89 203.752 156.028C203.748 156.167 203.718 156.305 203.662 156.434L188.797 190.949C188.69 191.199 188.681 191.479 188.772 191.735C188.863 191.991 189.048 192.207 189.292 192.342L198.187 197.242C198.441 197.381 198.74 197.423 199.025 197.359C199.31 197.295 199.559 197.131 199.723 196.898C204.571 190.005 209.003 182.85 212.996 175.468C217.123 167.824 219.215 163.895 220.543 158.644C221.889 153.315 221.672 149.694 221.273 135.484C221.114 129.833 220.846 122.3 220.347 113.353C220.332 113.076 220.209 112.815 220.004 112.62C219.799 112.425 219.525 112.31 219.237 112.298L202.487 111.639Z" fill="#FECD50"/>
<path d="M222.973 110.079C223.245 110.034 223.526 110.084 223.763 110.22C224.001 110.356 224.179 110.57 224.267 110.822C225.801 115.239 227.708 121.177 229.55 128.272C231.553 135.992 233.173 142.231 233.931 150.34C234.224 153.476 234.394 156.941 233.687 171.753C233.387 178.048 232.92 186.551 232.181 196.715C232.161 196.997 232.03 197.26 231.815 197.453C231.601 197.646 231.318 197.753 231.024 197.754H219.308C219.154 197.754 219.001 197.724 218.858 197.667C218.715 197.609 218.586 197.525 218.478 197.419C218.37 197.313 218.285 197.187 218.228 197.049C218.171 196.911 218.143 196.763 218.146 196.614C218.457 183.554 218.766 170.495 219.076 157.436C219.077 157.367 219.072 157.298 219.061 157.23L211.538 113.08C211.49 112.79 211.562 112.493 211.74 112.254C211.917 112.015 212.186 111.852 212.487 111.802L222.973 110.079Z" fill="#FECD50"/>
<path d="M198.813 119.368C200.648 111.185 201.146 104.507 201.257 99.876C201.457 91.5637 200.486 86.5704 204.11 83.4208C206.946 80.9573 211.427 80.9194 213.021 80.8928C214.842 80.8618 218.466 80.8008 221.122 82.6378C225.311 85.5354 224.473 91.342 225.378 102.963C225.827 108.693 226.583 114.397 227.64 120.053C225.711 121.242 219.246 124.887 210.629 123.873C204.889 123.197 200.805 120.761 198.813 119.368Z" fill="#917EEC"/>
<path d="M204.02 94.5292C211.026 104.917 220.072 111.583 227.364 109.979C230.016 109.395 232.191 107.771 234.758 105.853C240.767 101.365 244.269 96.263 246.17 92.9493L242.61 89.5849C237.008 93.6026 231.408 97.6209 225.812 101.64C223.592 100.684 220.626 99.0326 218.234 96.11C214.813 91.9341 215.361 88.5912 212.208 87.068C209.397 85.7098 204.732 86.3262 203.32 89.0975C202.144 91.4063 203.777 94.1355 204.02 94.5292Z" fill="#FC9C86"/>
<path d="M215.72 107.981C215.632 108.074 215.51 108.132 215.38 108.142C215.249 108.153 215.119 108.115 215.017 108.036C211.826 105.582 203.209 98.4886 202.082 91.2775C201.892 90.0612 201.91 88.8045 202.626 87.7532C204.527 84.9561 210.745 84.4868 214.171 86.9701C216.572 88.7134 215.959 90.7214 219.06 95.0021C220.241 96.6297 221.614 98.1202 223.151 99.4436C223.202 99.4873 223.244 99.5404 223.273 99.5996C223.302 99.6588 223.319 99.7231 223.322 99.7886C223.326 99.8541 223.315 99.9196 223.292 99.9813C223.269 100.043 223.233 100.099 223.186 100.148L215.72 107.981Z" fill="#917EEC"/>
<path d="M217.428 81.1756C217.428 81.1756 217.489 83.2386 214.671 83.6512C211.853 84.0638 207.944 81.4919 207.944 81.4919C208.091 80.6255 210.018 79.0782 212.958 79.2673C215.897 79.4564 217.428 81.1756 217.428 81.1756Z" fill="#FC9C86"/>
<path d="M223.186 100.315C223.153 100.315 223.12 100.306 223.091 100.289C223.063 100.272 223.04 100.247 223.025 100.218C223.011 100.189 223.005 100.157 223.009 100.125C223.012 100.093 223.025 100.062 223.046 100.037L223.271 99.7642C223.367 99.6493 223.411 99.5031 223.396 99.3568C223.381 99.2105 223.307 99.0757 223.19 98.9812C217.605 94.3953 214.201 91.0987 213.072 89.1818L213.047 89.1389C212.797 88.7091 212.038 87.4197 210.552 86.8446C209.89 86.5835 209.167 86.4961 208.458 86.591C208.411 86.5999 208.363 86.5906 208.324 86.5653C208.284 86.54 208.257 86.5007 208.248 86.4561C208.238 86.4115 208.248 86.3653 208.274 86.3274C208.3 86.2896 208.341 86.2632 208.387 86.2541C209.164 86.1427 209.958 86.2363 210.685 86.5248C212.288 87.142 213.093 88.5182 213.358 88.9704L213.383 89.0125C214.491 90.8916 217.869 94.1571 223.422 98.7164C223.61 98.8689 223.729 99.0858 223.753 99.3209C223.777 99.5561 223.704 99.791 223.551 99.9757L223.327 100.248C223.31 100.269 223.289 100.286 223.265 100.297C223.24 100.309 223.214 100.315 223.186 100.315ZM214.911 107.975C214.715 107.975 214.525 107.914 214.367 107.803C208.303 103.577 203.704 96.1987 203.659 96.123C203.64 96.0842 203.638 96.0403 203.651 95.9998C203.665 95.9593 203.693 95.925 203.732 95.9036C203.77 95.8822 203.815 95.8752 203.858 95.884C203.902 95.8928 203.94 95.9167 203.966 95.9511C204.012 96.0242 208.574 103.344 214.577 107.528C214.693 107.607 214.834 107.642 214.975 107.628C215.115 107.614 215.246 107.551 215.342 107.451L215.869 106.909C215.885 106.893 215.904 106.879 215.926 106.87C215.947 106.861 215.97 106.856 215.994 106.855C216.017 106.854 216.041 106.858 216.063 106.866C216.085 106.874 216.105 106.886 216.122 106.901C216.139 106.917 216.153 106.935 216.163 106.956C216.172 106.977 216.178 106.999 216.178 107.021C216.179 107.044 216.175 107.067 216.167 107.088C216.159 107.109 216.146 107.128 216.13 107.145L215.603 107.686C215.515 107.777 215.407 107.85 215.288 107.9C215.169 107.95 215.041 107.975 214.911 107.975ZM225.094 99.7875C225.057 99.7874 225.021 99.7761 224.99 99.7551C224.96 99.7341 224.937 99.7046 224.925 99.6706C224.21 97.6479 223.431 86.242 223.398 85.7581C223.397 85.7355 223.4 85.7128 223.407 85.6914C223.415 85.67 223.427 85.6502 223.442 85.6332C223.458 85.6161 223.477 85.6022 223.498 85.5923C223.519 85.5823 223.542 85.5764 223.566 85.575C223.589 85.5735 223.613 85.5764 223.635 85.5837C223.657 85.591 223.678 85.6024 223.695 85.6173C223.713 85.6323 223.728 85.6504 223.738 85.6707C223.748 85.6911 223.754 85.7131 223.756 85.7357C223.764 85.8535 224.561 97.5792 225.264 99.5597C225.272 99.5811 225.275 99.6037 225.273 99.6262C225.272 99.6488 225.266 99.6708 225.255 99.6911C225.245 99.7114 225.231 99.7295 225.213 99.7444C225.195 99.7593 225.175 99.7707 225.152 99.778C225.134 99.7841 225.114 99.7873 225.094 99.7875ZM218.96 162.634C218.926 162.634 218.893 162.625 218.864 162.607C218.824 162.583 218.796 162.544 218.786 162.499C218.775 162.455 218.784 162.408 218.809 162.37C218.841 162.323 221.951 157.542 221.402 151.15C220.845 144.703 218.809 133.128 218.786 133.012C218.781 132.985 218.784 132.958 218.792 132.932L220.208 128.622C220.214 128.6 220.224 128.579 220.239 128.56C220.254 128.542 220.273 128.526 220.294 128.515C220.315 128.504 220.339 128.497 220.363 128.494C220.387 128.492 220.411 128.494 220.434 128.501C220.458 128.508 220.479 128.52 220.497 128.535C220.516 128.55 220.531 128.569 220.541 128.59C220.552 128.611 220.558 128.634 220.559 128.657C220.56 128.68 220.557 128.704 220.548 128.726L219.147 132.995C219.281 133.761 221.218 144.857 221.759 151.121C222.321 157.634 219.146 162.506 219.114 162.554C219.098 162.579 219.075 162.599 219.048 162.613C219.021 162.627 218.991 162.634 218.96 162.634ZM217.427 79.398V80.6255C217.413 80.6255 213.354 80.6255 210.812 76.8226C210.808 76.8226 214.513 79.5149 217.427 79.398ZM219.977 65.6342C219.709 65.0635 218.89 64.1454 218.89 64.1454C218.89 64.1454 216.587 65.1838 214.656 64.809C212.725 64.4342 212.242 63.3168 210.922 62.6738C209.603 62.0308 209.431 63.4199 209.431 63.4199C209.205 63.4519 208.996 63.556 208.838 63.7156C207.908 64.7471 210.665 67.3259 210.028 69.4989C209.817 70.2244 209.145 71.1872 206.946 71.9986C207.94 73.288 209.946 76.0525 209.213 76.8777C208.48 77.7029 205.029 76.5648 203.027 74.3677C200.176 71.2388 199.669 65.3007 203.073 62.1787C204.757 60.6314 206.867 60.2704 207.99 60.1672C209.141 59.3861 210.48 58.9008 211.881 58.7575C214.391 58.5168 217.016 59.4521 217.835 60.6245C217.989 60.888 218.175 61.1327 218.389 61.3535C218.94 61.9105 219.462 62.0308 219.877 62.6944C220.431 63.5781 219.977 65.6342 219.977 65.6342Z" fill="#1D0A03"/>
<path d="M208.316 74.292C207.379 74.88 206.02 74.4743 205.276 73.3843C204.532 72.2943 204.686 70.9293 205.619 70.3379C206.553 69.7465 207.915 70.1591 208.659 71.2491C209.403 72.339 209.249 73.7041 208.316 74.292Z" fill="#FC9C86"/>
<path d="M208.348 73.0713C208.351 73.1164 208.335 73.1607 208.304 73.1948C208.273 73.2289 208.23 73.25 208.183 73.2535H208.133C207.851 73.2535 207.346 73.1229 207.182 72.6003C207.071 72.2427 207.375 71.971 207.672 71.8163C207.418 71.5172 206.831 70.9258 206.266 71.0633C205.719 71.194 205.844 71.7888 205.862 71.8541C205.874 71.8988 205.867 71.9462 205.843 71.9859C205.818 72.0255 205.778 72.0542 205.732 72.0656C205.685 72.077 205.636 72.0702 205.595 72.0466C205.553 72.0231 205.524 71.9848 205.512 71.9401C205.422 71.5963 205.458 70.9086 206.181 70.7367C207.175 70.496 208.058 71.7407 208.097 71.7922C208.111 71.8147 208.121 71.8398 208.124 71.8658C208.128 71.8918 208.126 71.9182 208.119 71.9435C208.11 71.9682 208.095 71.9907 208.076 72.0091C208.057 72.0276 208.034 72.0416 208.008 72.0501C207.89 72.0948 207.457 72.2942 207.525 72.5074C207.657 72.9372 208.14 72.9166 208.162 72.9166C208.207 72.9158 208.251 72.9312 208.285 72.9597C208.32 72.9883 208.342 73.028 208.348 73.0713Z" fill="#1D0A03"/>
<path d="M217.764 63.1963C217.479 63.2536 217.189 63.2824 216.898 63.2822C214.295 63.2822 212.081 61.092 211.981 60.9888C211.949 60.9555 211.931 60.9111 211.932 60.8653C211.934 60.8196 211.954 60.7762 211.988 60.7447C212.023 60.7132 212.069 60.6963 212.117 60.6976C212.164 60.6989 212.21 60.7183 212.242 60.7516C212.267 60.7791 214.924 63.4094 217.696 62.8593C217.719 62.8548 217.743 62.8547 217.766 62.8589C217.789 62.8632 217.811 62.8719 217.83 62.8843C217.85 62.8968 217.867 62.9128 217.88 62.9315C217.893 62.9502 217.902 62.9713 217.907 62.9934C217.911 63.0158 217.911 63.0388 217.907 63.0611C217.902 63.0835 217.893 63.1047 217.879 63.1236C217.866 63.1425 217.849 63.1587 217.829 63.1711C217.809 63.1836 217.787 63.1921 217.764 63.1963ZM217.993 61.9447C217.69 62.0794 217.36 62.1475 217.027 62.1441C215.954 62.1441 214.996 61.5183 214.946 61.4839C214.926 61.4712 214.909 61.4548 214.896 61.4357C214.883 61.4167 214.875 61.3953 214.87 61.373C214.866 61.3506 214.866 61.3276 214.871 61.3053C214.876 61.283 214.886 61.2619 214.899 61.2433C214.926 61.2061 214.967 61.1806 215.013 61.1723C215.059 61.1639 215.107 61.1733 215.146 61.1986C215.16 61.2089 216.644 62.1785 217.839 61.6352C217.86 61.6236 217.884 61.6162 217.908 61.6137C217.933 61.6112 217.957 61.6136 217.981 61.6206C218.004 61.6277 218.026 61.6393 218.044 61.6548C218.063 61.6703 218.078 61.6892 218.089 61.7106C218.099 61.7319 218.105 61.755 218.106 61.7786C218.107 61.8022 218.103 61.8257 218.094 61.8477C218.085 61.8697 218.071 61.8896 218.054 61.9063C218.036 61.923 218.015 61.9361 217.993 61.9447ZM206.124 68.9005C206.105 68.9045 206.086 68.9068 206.067 68.9074C206.025 68.9065 205.985 68.8917 205.953 68.8654C205.922 68.8391 205.901 68.8031 205.894 68.7635C205.887 68.7239 205.895 68.6832 205.916 68.6486C205.937 68.614 205.97 68.5875 206.009 68.5738C207.876 67.9618 207.483 65.1802 207.479 65.1527C207.472 65.1071 207.485 65.0608 207.514 65.0241C207.543 64.9873 207.585 64.9631 207.633 64.9567C207.68 64.9503 207.728 64.9623 207.767 64.99C207.805 65.0178 207.83 65.0589 207.837 65.1045C207.855 65.2318 208.273 68.1956 206.124 68.9005ZM206.138 65.6306C206.106 65.7578 205.291 68.763 202.905 69.0965C202.898 69.0965 202.887 69.0965 202.88 69.0965C202.857 69.0981 202.833 69.0952 202.811 69.088C202.789 69.0808 202.768 69.0695 202.75 69.0546C202.714 69.0246 202.692 68.9822 202.689 68.9366C202.686 68.891 202.701 68.846 202.732 68.8115C202.764 68.777 202.808 68.7558 202.855 68.7526C205.001 68.4535 205.784 65.5722 205.791 65.5446C205.797 65.5228 205.807 65.5022 205.821 65.4841C205.836 65.466 205.853 65.4508 205.874 65.4393C205.894 65.4278 205.916 65.4203 205.94 65.4171C205.963 65.4139 205.987 65.4152 206.009 65.4209C206.032 65.4265 206.053 65.4364 206.072 65.45C206.091 65.4636 206.107 65.4806 206.119 65.5001C206.131 65.5196 206.139 65.5411 206.142 65.5635C206.145 65.5859 206.144 65.6087 206.138 65.6306ZM198.173 199.688H198.144L194.879 199.172C194.855 199.169 194.833 199.16 194.813 199.148C194.792 199.136 194.775 199.121 194.761 199.102C194.747 199.084 194.737 199.063 194.732 199.04C194.726 199.018 194.725 198.995 194.729 198.972C194.733 198.95 194.741 198.928 194.754 198.909C194.766 198.889 194.783 198.872 194.802 198.859C194.821 198.846 194.843 198.836 194.866 198.831C194.89 198.826 194.914 198.825 194.937 198.828L198.202 199.344C198.249 199.348 198.293 199.369 198.324 199.404C198.355 199.439 198.37 199.484 198.366 199.53C198.363 199.575 198.34 199.618 198.304 199.647C198.268 199.677 198.221 199.692 198.173 199.688ZM230.898 202.374H228.056C228.008 202.374 227.963 202.356 227.929 202.324C227.896 202.292 227.877 202.248 227.877 202.202C227.877 202.157 227.896 202.113 227.929 202.081C227.963 202.048 228.008 202.03 228.056 202.03H230.898C230.945 202.03 230.991 202.048 231.024 202.081C231.058 202.113 231.076 202.157 231.076 202.202C231.076 202.248 231.058 202.292 231.024 202.324C230.991 202.356 230.945 202.374 230.898 202.374Z" fill="white"/>
<path d="M225.405 104.358H225.378C225.331 104.351 225.289 104.326 225.261 104.29C225.233 104.253 225.221 104.207 225.228 104.162L225.639 101.615C225.646 101.569 225.672 101.528 225.711 101.501C225.749 101.474 225.798 101.463 225.845 101.47C225.893 101.477 225.935 101.502 225.964 101.539C225.992 101.576 226.004 101.623 225.996 101.668L225.585 104.214C225.578 104.255 225.556 104.292 225.523 104.318C225.49 104.345 225.448 104.359 225.405 104.358ZM320.163 92.0408C320.163 92.0408 320.546 86.7457 317.245 84.5314C313.945 82.3171 311.963 83.8437 309.986 81.179C308.008 78.5143 309.943 73.3945 311.37 72.8066C312.797 72.2186 312.246 69.8943 311.735 69.7843C311.223 69.6742 309.639 69.6605 309.331 67.3155C309.024 64.9706 307.411 65.5276 305.451 64.7092C303.492 63.8909 303.796 62.2611 303.796 62.2611C303.796 62.2611 298.253 63.7534 298.063 68.2783C298.063 68.2783 296.429 65.0978 297.348 62.9969C298.267 60.8961 300.924 61.0749 300.924 61.0749C300.924 61.0749 307.433 57.0692 311.735 59.3213C316.037 61.5735 313.916 64.833 316.226 66.7138C318.536 68.5946 318.468 70.692 317.993 73.3327C317.517 75.9733 320.571 76.5028 321.862 78.8512C323.153 81.1996 321.114 82.7641 323.017 85.3119C324.919 87.8597 320.163 92.0408 320.163 92.0408Z" fill="#1D0A03"/>
<path d="M313.88 72.5109C313.208 73.6456 311.878 74.1338 310.905 73.6009C309.933 73.0679 309.693 71.7167 310.369 70.582C311.045 69.4473 312.375 68.9625 313.348 69.4955C314.32 70.0284 314.553 71.3763 313.88 72.5109Z" fill="#FC9C86"/>
<path d="M313.548 71.0771C313.54 71.1216 313.514 71.1614 313.476 71.1878C313.438 71.2141 313.39 71.225 313.344 71.2181C313.32 71.2143 313.298 71.2062 313.278 71.1941C313.258 71.182 313.241 71.1663 313.227 71.1477C313.214 71.1292 313.204 71.1082 313.199 71.0861C313.194 71.0639 313.193 71.041 313.197 71.0186C313.208 70.9499 313.297 70.3516 312.739 70.2519C312.16 70.1487 311.62 70.7745 311.388 71.0874C311.692 71.2249 312.013 71.4759 311.924 71.8404C311.788 72.4043 311.241 72.5521 310.969 72.5521C310.922 72.5521 310.876 72.534 310.843 72.5018C310.809 72.4696 310.79 72.4258 310.79 72.3802C310.79 72.3346 310.809 72.2909 310.843 72.2587C310.876 72.2264 310.922 72.2083 310.969 72.2083C310.991 72.2083 311.47 72.198 311.577 71.7613C311.631 71.5447 311.187 71.3694 311.066 71.3315C311.039 71.3243 311.015 71.3112 310.994 71.2933C310.974 71.2754 310.958 71.2532 310.948 71.2284C310.939 71.2043 310.935 71.1785 310.938 71.1529C310.94 71.1273 310.948 71.1026 310.962 71.0805C310.994 71.0255 311.795 69.7327 312.804 69.9115C313.537 70.0456 313.612 70.7333 313.548 71.0771ZM301.986 75.4945C301.597 75.4954 301.211 75.4242 300.85 75.2848C300.807 75.2659 300.773 75.2312 300.757 75.1885C300.74 75.1458 300.742 75.0985 300.761 75.057C300.781 75.0155 300.817 74.9832 300.862 74.9673C300.906 74.9513 300.955 74.953 300.998 74.9719C301.057 74.9977 302.456 75.5908 303.604 74.5155C303.621 74.4997 303.641 74.4873 303.663 74.479C303.685 74.4706 303.708 74.4665 303.732 74.4668C303.755 74.4671 303.778 74.4719 303.8 74.4808C303.822 74.4898 303.841 74.5027 303.857 74.5189C303.874 74.5351 303.887 74.5542 303.895 74.5752C303.904 74.5962 303.908 74.6186 303.908 74.6412C303.908 74.6638 303.903 74.6861 303.893 74.7069C303.884 74.7276 303.871 74.7464 303.854 74.7622C303.609 74.9972 303.317 75.183 302.997 75.3088C302.676 75.4345 302.333 75.4976 301.986 75.4945Z" fill="#1D0A03"/>
<path d="M301.115 202.742H297.872C297.825 202.742 297.779 202.724 297.746 202.692C297.712 202.66 297.693 202.616 297.693 202.57C297.693 202.525 297.712 202.481 297.746 202.449C297.779 202.416 297.825 202.398 297.872 202.398H301.115C301.162 202.398 301.207 202.416 301.241 202.449C301.275 202.481 301.293 202.525 301.293 202.57C301.293 202.616 301.275 202.66 301.241 202.692C301.207 202.724 301.162 202.742 301.115 202.742ZM332.491 202.434H328.663C328.616 202.434 328.571 202.416 328.537 202.384C328.504 202.352 328.485 202.308 328.485 202.263C328.485 202.217 328.504 202.173 328.537 202.141C328.571 202.109 328.616 202.091 328.663 202.091H332.488C332.535 202.091 332.581 202.109 332.614 202.141C332.648 202.173 332.667 202.217 332.667 202.263C332.667 202.308 332.648 202.352 332.614 202.384C332.581 202.416 332.535 202.434 332.488 202.434H332.491ZM300.155 62.5774C298.224 63.1241 298.045 65.4829 298.045 65.5069C298.043 65.5507 298.023 65.5918 297.989 65.6219C297.956 65.6519 297.912 65.6686 297.867 65.6685H297.856C297.832 65.6672 297.809 65.6614 297.788 65.6516C297.767 65.6417 297.748 65.6279 297.733 65.611C297.717 65.594 297.705 65.5743 297.697 65.5529C297.69 65.5315 297.686 65.5089 297.688 65.4863C297.695 65.3797 297.881 62.8594 300.055 62.2474C300.101 62.2346 300.15 62.2397 300.191 62.2617C300.233 62.2836 300.264 62.3205 300.277 62.3643C300.283 62.3859 300.286 62.4086 300.283 62.4311C300.28 62.4535 300.273 62.4753 300.262 62.4951C300.251 62.5149 300.235 62.5323 300.217 62.5465C300.199 62.5606 300.178 62.5711 300.155 62.5774ZM313.68 67.484C313.355 67.5768 313.018 67.6265 312.679 67.6318C311.255 67.6318 310.908 66.5144 310.622 65.586C310.354 64.7161 310.118 63.9631 309.21 63.939C306.724 63.8703 306.17 62.5293 306.142 62.4777C306.126 62.4348 306.128 62.3878 306.147 62.3462C306.167 62.3047 306.202 62.2718 306.245 62.2542C306.267 62.2459 306.291 62.242 306.315 62.2425C306.338 62.243 306.362 62.2481 306.383 62.2574C306.405 62.2666 306.424 62.28 306.441 62.2965C306.457 62.3131 306.469 62.3326 306.478 62.3539C306.499 62.4055 306.993 63.5367 309.217 63.5986C310.386 63.6296 310.694 64.6198 310.962 65.4897C311.327 66.6622 311.642 67.6731 313.583 67.1573C313.606 67.1511 313.63 67.1492 313.653 67.1519C313.677 67.1546 313.7 67.1617 313.72 67.1729C313.741 67.1841 313.759 67.1991 313.774 67.2171C313.788 67.2351 313.799 67.2557 313.805 67.2777C313.816 67.321 313.809 67.3667 313.786 67.4051C313.762 67.4436 313.724 67.4719 313.68 67.484Z" fill="white"/>
<path d="M314.317 66.1877C314.072 66.2668 313.816 66.3086 313.558 66.3114C313.222 66.3159 312.892 66.2237 312.611 66.0467C311.613 65.4209 311.438 63.9149 311.431 63.8496C311.428 63.827 311.43 63.8042 311.437 63.7824C311.443 63.7605 311.454 63.7402 311.469 63.7225C311.484 63.7048 311.502 63.69 311.523 63.6791C311.544 63.6681 311.566 63.6612 311.59 63.6588C311.613 63.6563 311.637 63.6583 311.66 63.6646C311.682 63.6709 311.704 63.6815 311.722 63.6957C311.74 63.7099 311.756 63.7275 311.767 63.7474C311.779 63.7673 311.786 63.7892 311.788 63.8118C311.788 63.829 311.953 65.2249 312.811 65.7613C313.19 65.9986 313.662 66.0295 314.213 65.861C314.257 65.8517 314.302 65.8584 314.341 65.8799C314.38 65.9014 314.409 65.936 314.422 65.9771C314.436 66.0181 314.433 66.0625 314.414 66.1015C314.395 66.1404 314.361 66.1712 314.32 66.1877H314.317ZM296.533 83.9709C293.89 85.188 294.058 86.4981 294.058 86.5118C294.062 86.5342 294.061 86.557 294.055 86.5789C294.05 86.6009 294.039 86.6216 294.026 86.6398C294.012 86.658 293.994 86.6734 293.974 86.685C293.954 86.6967 293.931 86.7044 293.908 86.7078C293.9 86.7095 293.891 86.7095 293.883 86.7078C293.84 86.7083 293.799 86.694 293.766 86.6675C293.733 86.641 293.711 86.6041 293.704 86.5634C293.694 86.5015 293.468 84.9955 296.379 83.658C297.76 83.0219 297.502 82.0866 297.144 80.7938C296.833 79.6592 296.476 78.3732 297.241 77.0219C297.264 76.9826 297.301 76.9534 297.346 76.9406C297.391 76.9277 297.439 76.9323 297.481 76.9532C297.501 76.964 297.52 76.9786 297.534 76.9962C297.549 77.0138 297.56 77.0341 297.567 77.0558C297.574 77.0775 297.576 77.1003 297.573 77.1228C297.571 77.1453 297.563 77.1671 297.552 77.187C296.858 78.4145 297.195 79.6317 297.491 80.7113C297.845 81.9938 298.178 83.2075 296.533 83.9709ZM313.923 81.007C313.917 81.0483 313.896 81.0861 313.863 81.1133C313.83 81.1405 313.788 81.1553 313.744 81.1548C313.735 81.1567 313.725 81.1567 313.716 81.1548C312.622 80.9967 311.881 80.5531 311.513 79.8448C310.741 78.3526 311.913 76.2346 311.96 76.1486C311.971 76.1284 311.986 76.1105 312.004 76.0959C312.022 76.0813 312.043 76.0703 312.066 76.0636C312.088 76.0569 312.112 76.0546 312.136 76.0568C312.159 76.059 312.182 76.0656 312.203 76.0764C312.224 76.0872 312.242 76.1018 312.257 76.1194C312.272 76.137 312.283 76.1573 312.289 76.179C312.296 76.2007 312.298 76.2235 312.296 76.246C312.293 76.2685 312.286 76.2903 312.275 76.3102C312.264 76.3308 311.137 78.3663 311.828 79.697C312.139 80.2987 312.79 80.6769 313.762 80.8145C313.786 80.8166 313.809 80.8233 313.83 80.8342C313.852 80.8451 313.87 80.86 313.885 80.8779C313.9 80.8959 313.911 80.9166 313.918 80.9388C313.924 80.9609 313.926 80.9841 313.923 81.007ZM319.173 82.2035C319.174 82.2261 319.171 82.2488 319.163 82.2702C319.156 82.2916 319.144 82.3113 319.128 82.3282C319.113 82.3451 319.094 82.3589 319.072 82.3688C319.051 82.3787 319.028 82.3845 319.005 82.3858C318.89 82.3961 318.776 82.3995 318.665 82.3995C317.758 82.4134 316.878 82.1007 316.198 81.5228C314.302 79.9205 314.091 76.7262 314.084 76.5921C314.081 76.5465 314.097 76.5017 314.129 76.4676C314.16 76.4334 314.205 76.4126 314.252 76.4099C314.3 76.4072 314.346 76.4227 314.382 76.453C314.417 76.4833 314.439 76.5259 314.442 76.5715C314.442 76.6025 314.649 79.7589 316.434 81.2649C317.131 81.8528 317.989 82.1141 318.98 82.0385C319.028 82.0364 319.075 82.0524 319.111 82.0833C319.147 82.1141 319.169 82.1573 319.173 82.2035Z" fill="white"/>
<path d="M299.893 107.451C299.856 107.45 299.82 107.439 299.79 107.419C299.76 107.399 299.737 107.37 299.724 107.336L298.569 104.242C298.561 104.22 298.558 104.198 298.559 104.175C298.56 104.153 298.566 104.131 298.576 104.11C298.586 104.09 298.6 104.071 298.618 104.056C298.635 104.041 298.655 104.029 298.678 104.022C298.7 104.014 298.723 104.011 298.747 104.012C298.77 104.013 298.793 104.018 298.814 104.028C298.836 104.038 298.855 104.051 298.871 104.068C298.886 104.085 298.899 104.104 298.906 104.126L300.061 107.22C300.077 107.263 300.074 107.31 300.054 107.352C300.034 107.393 299.998 107.425 299.953 107.44C299.934 107.447 299.913 107.45 299.893 107.451ZM288.791 101.812C288.759 101.812 288.728 101.804 288.7 101.789C288.672 101.774 288.649 101.752 288.633 101.726L287.309 99.3747C287.289 99.3349 287.286 99.2892 287.3 99.247C287.314 99.2049 287.344 99.1695 287.385 99.1484C287.425 99.1272 287.472 99.1218 287.517 99.1334C287.561 99.145 287.599 99.1726 287.623 99.2105L288.947 101.562C288.97 101.602 288.975 101.649 288.962 101.693C288.948 101.737 288.917 101.774 288.876 101.795C288.849 101.807 288.82 101.813 288.791 101.812ZM308.28 148.63C308.238 148.631 308.196 148.617 308.163 148.59C308.131 148.564 308.109 148.528 308.101 148.487L304.835 130.303L302.099 125.824C302.084 125.805 302.074 125.783 302.069 125.759C302.063 125.736 302.063 125.711 302.069 125.688C302.074 125.664 302.084 125.642 302.099 125.622C302.113 125.603 302.132 125.587 302.154 125.575C302.175 125.562 302.199 125.555 302.224 125.552C302.249 125.55 302.274 125.552 302.298 125.559C302.322 125.567 302.344 125.579 302.363 125.595C302.381 125.611 302.396 125.63 302.406 125.652L305.159 130.158C305.171 130.176 305.178 130.195 305.181 130.216L308.452 148.434C308.46 148.479 308.449 148.525 308.422 148.562C308.394 148.6 308.353 148.625 308.306 148.633C308.297 148.632 308.289 148.632 308.28 148.63Z" fill="#1D0A03"/>
</g>
<rect x="0.25" y="0.25" width="327.5" height="191.5" rx="7.75" stroke="url(#paint0_linear_144_9757)" stroke-width="0.5"/>
<defs>
<linearGradient id="paint0_linear_144_9757" x1="-60" y1="4.38857" x2="389.565" y2="155.083" gradientUnits="userSpaceOnUse">
<stop stop-color="#FFCC01"/>
<stop offset="1" stop-color="#C77D39"/>
</linearGradient>
<clipPath id="clip0_144_9757">
<rect width="328" height="192" rx="8" fill="white"/>
</clipPath>
</defs>
</svg>
