<svg width="24" height="25" viewBox="0 0 24 25" fill="none" xmlns="http://www.w3.org/2000/svg">
<path d="M21.7999 12.5C21.7999 17.9124 17.4123 22.3 12 22.3C6.58756 22.3 2.19995 17.9124 2.19995 12.5C2.19995 7.08762 6.58756 2.70001 12 2.70001C17.4123 2.70001 21.7999 7.08762 21.7999 12.5Z" stroke="#020305" stroke-width="2" stroke-linecap="round" stroke-linejoin="round"/>
<path d="M15.8 12.152C15.8 14.2507 14.0986 15.952 12 15.952C9.90127 15.952 8.19995 14.2507 8.19995 12.152C8.19995 10.0533 9.90127 8.35199 12 8.35199C14.0986 8.35199 15.8 10.0533 15.8 12.152Z" stroke="#020305" stroke-width="2" stroke-linecap="round" stroke-linejoin="round"/>
<path d="M6 19.881C6.56253 18.7729 7.4209 17.8423 8.47995 17.1923C9.539 16.5422 10.7574 16.1982 12 16.1982C13.2426 16.1982 14.461 16.5422 15.5201 17.1923C16.5791 17.8423 17.4375 18.7729 18 19.881" stroke="#020305" stroke-width="1.74455" stroke-linecap="round" stroke-linejoin="round"/>
</svg>
