<svg width="328" height="60" viewBox="0 0 328 60" fill="none" xmlns="http://www.w3.org/2000/svg">
<rect x="0.5" y="0.5" width="327" height="59" rx="11.5" fill="white"/>
<rect x="0.5" y="0.5" width="327" height="59" rx="11.5" stroke="#D9D9D9"/>
<g clip-path="url(#clip0_140_2564)">
<path d="M45.4209 11.5566L43.1943 16.752V46.2168C43.1943 47.4488 42.1998 48.4434 40.9678 48.4434H16.5498L18.7764 44.4133V13.7832C18.7764 12.5512 19.7709 11.5566 21.0029 11.5566H45.4209Z" fill="white"/>
<path d="M38.4443 43.248H14.1006V46.2168C14.1006 47.4488 15.0951 48.4434 16.3271 48.4434H41.042" fill="#DADADC"/>
<path d="M38.5183 43.248V46.1055C38.5183 47.3969 39.5648 48.4434 40.8562 48.4434C42.1476 48.4434 43.1941 47.3969 43.1941 46.1055V43.248" fill="white"/>
<path d="M45.5468 11.5566C46.8457 11.5566 47.8996 12.6105 47.8996 13.9094V16.752H43.1941V13.9094C43.1941 12.6105 44.248 11.5566 45.5468 11.5566Z" fill="#DADADC"/>
<path d="M23.3701 14.8965H38.6814C39.2975 14.8965 39.7947 15.3937 39.7947 16.0098V17.5684C39.7947 18.1844 39.2975 18.6816 38.6814 18.6816H23.3701C22.7541 18.6816 22.2568 18.1844 22.2568 17.5684V16.0098C22.2568 15.3937 22.7615 14.8965 23.3701 14.8965Z" fill="#C8C5CC"/>
<path d="M36.7444 32.0263C36.9226 32.5978 36.1284 33.3029 36.1136 33.8744C36.1061 34.4681 36.8632 35.1955 36.6776 35.7447C36.4847 36.2939 35.4308 36.4052 35.0819 36.8728C34.7331 37.333 34.9261 38.3794 34.4436 38.7134C33.9761 39.04 33.0632 38.513 32.4917 38.6837C31.9202 38.8619 31.4601 39.8119 30.8886 39.797C30.2948 39.7896 29.8718 38.8173 29.33 38.6244C28.7808 38.4314 27.8456 38.9361 27.378 38.5798C26.9179 38.231 27.1405 37.1994 26.7991 36.7169C26.4726 36.2494 25.4186 36.1083 25.2479 35.5369C25.0698 34.9654 25.864 34.2603 25.8788 33.6888C25.8862 33.0951 25.1292 32.3677 25.3147 31.8185C25.5077 31.2693 26.5616 31.158 26.9104 30.6904C27.2593 30.2302 27.0663 29.1837 27.5487 28.8498C28.0163 28.5232 28.9292 29.0501 29.5007 28.8794C30.0722 28.7087 30.5323 27.7513 31.1038 27.7662C31.6976 27.7736 32.1206 28.7458 32.6624 28.9388C33.2116 29.1318 34.1468 28.6271 34.6144 28.9833C35.0745 29.3322 34.8519 30.3638 35.1933 30.8462C35.5198 31.3138 36.5663 31.4548 36.7444 32.0263Z" fill="#FF7A00"/>
<path d="M36.7444 32.0262C36.5663 31.4547 35.5198 31.3137 35.1932 30.8462C34.8518 30.3637 35.0745 29.3321 34.6143 28.9833C34.1467 28.6344 33.2116 29.1317 32.6624 28.9387C32.1131 28.7532 31.6901 27.7809 31.1038 27.7661C30.6956 27.7587 30.3393 28.2485 29.9608 28.5899C30.1167 28.7458 30.2725 27.7661 30.4358 27.8254C30.985 28.0184 31.9202 28.627 32.3877 28.9833C32.8479 29.3321 32.6252 30.3637 32.9667 30.8462C33.2932 31.3137 34.3471 31.4547 34.5178 32.0262C34.6959 32.5977 33.9018 33.3028 33.887 33.8743C33.8795 34.468 34.6366 35.1954 34.451 35.7446C34.2581 36.2938 33.2042 36.4051 32.8553 36.8727C32.5065 37.3329 32.6995 38.3794 32.217 38.7133C31.7495 39.0399 30.8366 39.6262 30.2651 39.7969C30.1018 39.8489 29.9534 38.8395 29.8049 38.9731C30.1538 39.3219 30.4803 39.7895 30.8885 39.7969C31.46 39.8044 31.9127 38.8544 32.4917 38.6837C33.0631 38.5055 33.976 39.0399 34.4436 38.7133C34.926 38.3719 34.7405 37.3329 35.0819 36.8727C35.4307 36.4051 36.4846 36.3012 36.6776 35.7446C36.8631 35.1954 36.1061 34.468 36.1135 33.8743C36.1284 33.3028 36.9225 32.6051 36.7444 32.0262Z" fill="#CB6100"/>
<path d="M39.8544 22.5781H22.1384C21.8341 22.5781 21.5818 22.3258 21.5818 22.0215C21.5818 21.7172 21.8341 21.4648 22.1384 21.4648H39.8619C40.1662 21.4648 40.4185 21.7172 40.4185 22.0215C40.4185 22.3258 40.1662 22.5781 39.8544 22.5781ZM39.8544 25.918H22.1384C21.8341 25.918 21.5818 25.6656 21.5818 25.3613C21.5818 25.057 21.8341 24.8047 22.1384 24.8047H39.8619C40.1662 24.8047 40.4185 25.057 40.4185 25.3613C40.4185 25.6656 40.1662 25.918 39.8544 25.918Z" fill="white"/>
<path d="M45.5471 11H21.0029C19.4666 11 18.2197 12.2469 18.2197 13.7832V42.6914H14.1006C13.7963 42.6914 13.5439 42.9438 13.5439 43.248V46.2168C13.5439 47.7531 14.7908 49 16.3271 49H41.1014C42.5709 48.9258 43.751 47.7086 43.751 46.2168V17.3086H47.8998C48.2041 17.3086 48.4564 17.0562 48.4564 16.752V13.9094C48.4564 12.3063 47.1502 11 45.5471 11ZM16.3271 47.8867C15.4068 47.8867 14.6572 47.1371 14.6572 46.2168V43.8047H37.9619V46.1055C37.9619 46.7734 38.192 47.3969 38.5779 47.8867H16.3271ZM42.6377 13.9094V46.1055C42.6377 47.0852 41.8361 47.8867 40.8564 47.8867C39.8768 47.8867 39.0752 47.0852 39.0752 46.1055V43.248C39.0752 42.9438 38.8228 42.6914 38.5186 42.6914H19.333V13.7832C19.333 12.8629 20.0826 12.1133 21.0029 12.1133H43.2611C42.8752 12.6105 42.6377 13.234 42.6377 13.9094ZM47.3432 16.1953H43.751V13.9094C43.751 12.9223 44.5525 12.1133 45.5471 12.1133C46.5416 12.1133 47.3432 12.9148 47.3432 13.9094V16.1953ZM23.3705 19.2383H38.6744C39.5947 19.2383 40.3443 18.4887 40.3443 17.5684V16.0098C40.3443 15.0895 39.5947 14.3398 38.6744 14.3398H23.3705C22.4502 14.3398 21.7006 15.0895 21.7006 16.0098V17.5684C21.708 18.4887 22.4502 19.2383 23.3705 19.2383ZM22.8213 16.0098C22.8213 15.7055 23.0736 15.4531 23.3779 15.4531H38.6818C38.9861 15.4531 39.2385 15.7055 39.2385 16.0098V17.5684C39.2385 17.8727 38.9861 18.125 38.6818 18.125H23.3705C23.0662 18.125 22.8139 17.8727 22.8139 17.5684V16.0098H22.8213ZM37.2791 31.8629C37.1084 31.3137 36.5814 31.0539 36.1584 30.8387C35.9729 30.7422 35.7131 30.616 35.6463 30.527C35.5721 30.423 35.5424 30.141 35.5127 29.9109C35.4607 29.4508 35.3939 28.8793 34.9486 28.5379C34.5033 28.2039 33.9244 28.293 33.4643 28.3746C33.249 28.4117 32.9596 28.4562 32.8408 28.4191C32.7295 28.382 32.5291 28.1668 32.3881 28.0035C32.0689 27.6547 31.6756 27.2242 31.1115 27.2168H31.0893C30.5475 27.2168 30.1689 27.6027 29.835 27.9441C29.6717 28.1148 29.4639 28.3227 29.3377 28.3598C29.2115 28.3969 28.9221 28.3375 28.692 28.293C28.217 28.1965 27.6826 28.0926 27.2299 28.4043C26.7623 28.7309 26.6807 29.3098 26.6064 29.7699C26.5768 29.9852 26.5322 30.2746 26.458 30.3637C26.3838 30.4602 26.1166 30.5863 25.9162 30.6754C25.4932 30.8684 24.9662 31.1133 24.7807 31.6402C24.6025 32.1672 24.8623 32.6793 25.0775 33.0949C25.1814 33.3027 25.315 33.5551 25.315 33.6813C25.315 33.7926 25.174 34.0449 25.0701 34.223C24.84 34.6387 24.5506 35.1508 24.7139 35.7C24.8846 36.2492 25.4115 36.509 25.8346 36.7242C26.0201 36.8207 26.2799 36.9469 26.3467 37.0359C26.4209 37.1398 26.4506 37.4219 26.4803 37.652C26.5322 38.1121 26.599 38.6836 27.0443 39.025C27.4896 39.359 28.0686 39.2699 28.5287 39.1883C28.7439 39.1512 29.0334 39.1066 29.1521 39.1438C29.2635 39.1809 29.4639 39.3961 29.6049 39.5594C29.924 39.9082 30.3174 40.3387 30.8814 40.3461H30.9037C31.4455 40.3461 31.824 39.9602 32.158 39.6188C32.3213 39.448 32.5291 39.2402 32.6553 39.2031C32.7814 39.166 33.0709 39.2254 33.301 39.2699C33.776 39.3664 34.3104 39.4703 34.7631 39.1586C35.2307 38.832 35.3123 38.2531 35.3865 37.793C35.4162 37.5777 35.4607 37.2883 35.535 37.1992C35.6092 37.1027 35.8764 36.9766 36.0768 36.8875C36.4998 36.6945 37.0268 36.4496 37.2123 35.9227C37.3904 35.3957 37.1307 34.8836 36.9154 34.468C36.8115 34.2602 36.6779 34.0078 36.6779 33.8816C36.6779 33.7703 36.8189 33.518 36.9228 33.3398C37.1529 32.9242 37.4424 32.4121 37.2791 31.8629ZM35.9209 34.9801C36.01 35.1508 36.1732 35.4625 36.1584 35.559C36.1139 35.648 35.7873 35.7965 35.6092 35.8781C35.2678 36.034 34.8818 36.2121 34.6443 36.5312C34.4068 36.8504 34.34 37.266 34.2881 37.6297C34.2584 37.8227 34.2064 38.1863 34.1322 38.2457C34.0432 38.2828 33.7166 38.2234 33.5236 38.1789C33.1525 38.1047 32.7295 38.023 32.3361 38.1418C31.9428 38.2605 31.6385 38.5648 31.3713 38.8395C31.2303 38.9805 31.0002 39.218 30.9037 39.2328C30.8072 39.218 30.5549 38.9508 30.4213 38.8098C30.1689 38.5352 29.8869 38.2234 29.5084 38.0973C29.3451 38.0453 29.1818 38.023 29.0186 38.023C28.7885 38.023 28.5584 38.0602 28.3432 38.0973C28.1502 38.127 27.7939 38.1863 27.7123 38.1418C27.6455 38.0676 27.601 37.7187 27.5787 37.5258C27.5342 37.1547 27.4822 36.7316 27.2521 36.3977C27.0295 36.0785 26.6584 35.893 26.3244 35.7297C26.1537 35.648 25.8049 35.4699 25.7752 35.3734C25.7455 35.2844 25.9385 34.9355 26.035 34.7723C26.2131 34.4531 26.4209 34.0895 26.4283 33.6961C26.4357 33.2879 26.2428 32.9094 26.0721 32.5754C25.983 32.4047 25.8197 32.093 25.8346 31.9965C25.8791 31.9074 26.2057 31.759 26.3838 31.6773C26.7252 31.5215 27.1111 31.3434 27.3486 31.0242C27.5861 30.7051 27.6529 30.2895 27.7049 29.9258C27.7346 29.7328 27.7865 29.3691 27.8607 29.3098C27.9498 29.2727 28.2764 29.332 28.4693 29.3766C28.8404 29.4508 29.2635 29.5324 29.6568 29.4137C30.0502 29.2949 30.3545 28.9906 30.6217 28.716C30.7627 28.575 30.9928 28.3375 31.0893 28.3227C31.1857 28.3301 31.4381 28.6047 31.5717 28.7457C31.824 29.0203 32.1061 29.332 32.4846 29.4582C32.8631 29.5918 33.2861 29.5176 33.6498 29.4582C33.8428 29.4285 34.199 29.3691 34.2807 29.4137C34.3475 29.4879 34.392 29.8367 34.4143 30.0297C34.4588 30.4008 34.5107 30.8238 34.7408 31.1578C34.9635 31.477 35.3346 31.6625 35.6686 31.8258C35.8393 31.9074 36.1881 32.0855 36.2178 32.182C36.2475 32.2711 36.0545 32.6199 35.958 32.7832C35.7799 33.1023 35.5721 33.466 35.5646 33.8594C35.5572 34.2676 35.7502 34.6461 35.9209 34.9801ZM32.5365 32.0039L30.1541 34.3863L29.4639 33.6961C29.2486 33.4809 28.8924 33.4809 28.6771 33.6961C28.4619 33.9113 28.4619 34.2676 28.6771 34.4828L29.7682 35.5738C29.8721 35.6777 30.0131 35.7371 30.1615 35.7371C30.31 35.7371 30.451 35.6777 30.5549 35.5738L33.3307 32.798C33.5459 32.5828 33.5459 32.2266 33.3307 32.0113C33.1006 31.7887 32.7518 31.7887 32.5365 32.0039ZM22.1385 22.5781H39.8619C40.1662 22.5781 40.4186 22.3258 40.4186 22.0215C40.4186 21.7172 40.1662 21.4648 39.8619 21.4648H22.1385C21.8342 21.4648 21.5818 21.7172 21.5818 22.0215C21.5818 22.3258 21.8268 22.5781 22.1385 22.5781ZM22.1385 25.918H39.8619C40.1662 25.918 40.4186 25.6656 40.4186 25.3613C40.4186 25.057 40.1662 24.8047 39.8619 24.8047H22.1385C21.8342 24.8047 21.5818 25.057 21.5818 25.3613C21.5818 25.6656 21.8268 25.918 22.1385 25.918Z" fill="#3C3B41"/>
</g>
<path d="M70.12 24.312C70.12 25.866 68.93 27 67.124 27H63.162V17.76H66.396C68.062 17.76 69.168 18.796 69.168 20.224C69.168 20.938 68.902 21.526 68.398 21.96C69.476 22.31 70.12 23.178 70.12 24.312ZM66.256 19.062H64.618V21.554H66.256C67.166 21.554 67.684 21.064 67.684 20.294C67.684 19.524 67.166 19.062 66.256 19.062ZM68.622 24.27C68.622 23.388 68.02 22.828 66.998 22.828H64.618V25.698H66.998C68.02 25.698 68.622 25.152 68.622 24.27ZM77.9623 24.046H72.8383C73.0203 25.166 73.9023 25.852 75.0783 25.852C75.7923 25.852 76.4643 25.586 77.0803 25.04L77.7803 26.048C76.9963 26.79 76.0863 27.154 75.0363 27.154C72.9363 27.154 71.3403 25.6 71.3403 23.57C71.2983 21.596 72.9503 19.93 74.8963 19.972C76.7163 19.972 78.0743 21.33 78.0743 23.122C78.0743 23.416 78.0323 23.724 77.9623 24.046ZM72.8663 22.898H76.6043C76.5903 21.848 75.8063 21.218 74.8403 21.218C73.8743 21.218 73.0903 21.876 72.8663 22.898ZM90.8505 24.312C90.8505 25.866 89.6605 27 87.8545 27H83.8925V17.76H87.1265C88.7925 17.76 89.8985 18.796 89.8985 20.224C89.8985 20.938 89.6325 21.526 89.1285 21.96C90.2065 22.31 90.8505 23.178 90.8505 24.312ZM86.9865 19.062H85.3485V21.554H86.9865C87.8965 21.554 88.4145 21.064 88.4145 20.294C88.4145 19.524 87.8965 19.062 86.9865 19.062ZM89.3525 24.27C89.3525 23.388 88.7505 22.828 87.7285 22.828H85.3485V25.698H87.7285C88.7505 25.698 89.3525 25.152 89.3525 24.27ZM98.6928 24.046H93.5688C93.7508 25.166 94.6328 25.852 95.8088 25.852C96.5228 25.852 97.1948 25.586 97.8108 25.04L98.5108 26.048C97.7268 26.79 96.8168 27.154 95.7668 27.154C93.6668 27.154 92.0708 25.6 92.0708 23.57C92.0288 21.596 93.6808 19.93 95.6268 19.972C97.4468 19.972 98.8048 21.33 98.8048 23.122C98.8048 23.416 98.7628 23.724 98.6928 24.046ZM93.5968 22.898H97.3348C97.3208 21.848 96.5368 21.218 95.5708 21.218C94.6048 21.218 93.8208 21.876 93.5968 22.898ZM100.083 22.38C100.041 19.734 102.295 17.564 104.927 17.606C107.545 17.564 109.841 19.734 109.785 22.38C109.841 25.026 107.545 27.196 104.927 27.154C102.281 27.196 100.027 25.026 100.083 22.38ZM108.259 22.366C108.259 20.434 106.831 18.964 104.941 18.964C103.023 18.964 101.623 20.42 101.623 22.366C101.623 24.34 103.023 25.796 104.941 25.796C106.831 25.796 108.259 24.34 108.259 22.366ZM117.531 22.702V27H116.061V22.898C116.061 21.946 115.459 21.302 114.563 21.302C113.653 21.302 112.995 21.96 112.995 22.898V27H111.525V20.126H112.897V20.798C113.415 20.252 114.101 19.972 114.955 19.972C116.565 19.972 117.531 21.064 117.531 22.702ZM125.822 24.046H120.698C120.88 25.166 121.762 25.852 122.938 25.852C123.652 25.852 124.324 25.586 124.94 25.04L125.64 26.048C124.856 26.79 123.946 27.154 122.896 27.154C120.796 27.154 119.2 25.6 119.2 23.57C119.158 21.596 120.81 19.93 122.756 19.972C124.576 19.972 125.934 21.33 125.934 23.122C125.934 23.416 125.892 23.724 125.822 24.046ZM120.726 22.898H124.464C124.45 21.848 123.666 21.218 122.7 21.218C121.734 21.218 120.95 21.876 120.726 22.898ZM137.187 17.76H138.853L134.779 27.154H134.275L130.201 17.76H131.867L134.527 24.186L137.187 17.76ZM145.623 24.046H140.499C140.681 25.166 141.563 25.852 142.739 25.852C143.453 25.852 144.125 25.586 144.741 25.04L145.441 26.048C144.657 26.79 143.747 27.154 142.697 27.154C140.597 27.154 139.001 25.6 139.001 23.57C138.959 21.596 140.611 19.93 142.557 19.972C144.377 19.972 145.735 21.33 145.735 23.122C145.735 23.416 145.693 23.724 145.623 24.046ZM140.527 22.898H144.265C144.251 21.848 143.467 21.218 142.501 21.218C141.535 21.218 140.751 21.876 140.527 22.898ZM151.409 20.126V21.428H150.961C149.799 21.428 148.945 22.114 148.945 23.332V27H147.475V20.126H148.847V21.022C149.337 20.406 150.065 20.056 150.849 20.056C151.059 20.056 151.241 20.084 151.409 20.126ZM152.781 27V20.126H154.251V27H152.781ZM152.515 17.564C152.515 17.018 152.963 16.584 153.523 16.584C154.069 16.584 154.517 17.018 154.517 17.564C154.517 18.11 154.069 18.53 153.523 18.53C152.963 18.53 152.515 18.11 152.515 17.564ZM158.155 18.866V20.126H159.779V21.4H158.155V27H156.685V21.4H155.705V20.126H156.685V18.74C156.685 17.13 157.623 16.346 159.135 16.346C159.513 16.346 159.821 16.388 160.087 16.472V17.718C159.863 17.69 159.667 17.676 159.499 17.676C158.603 17.676 158.155 17.984 158.155 18.866ZM161.205 27V20.126H162.675V27H161.205ZM160.939 17.564C160.939 17.018 161.387 16.584 161.947 16.584C162.493 16.584 162.941 17.018 162.941 17.564C162.941 18.11 162.493 18.53 161.947 18.53C161.387 18.53 160.939 18.11 160.939 17.564ZM171.045 24.046H165.921C166.103 25.166 166.985 25.852 168.161 25.852C168.875 25.852 169.547 25.586 170.163 25.04L170.863 26.048C170.079 26.79 169.169 27.154 168.119 27.154C166.019 27.154 164.423 25.6 164.423 23.57C164.381 21.596 166.033 19.93 167.979 19.972C169.799 19.972 171.157 21.33 171.157 23.122C171.157 23.416 171.115 23.724 171.045 24.046ZM165.949 22.898H169.687C169.673 21.848 168.889 21.218 167.923 21.218C166.957 21.218 166.173 21.876 165.949 22.898ZM178.12 16.5H179.604V27H178.232V26.02C177.728 26.734 176.846 27.154 175.824 27.154C173.892 27.154 172.464 25.6 172.464 23.57C172.422 21.568 173.92 19.93 175.824 19.972C176.776 19.972 177.602 20.336 178.12 20.966V16.5ZM178.148 23.57C178.148 22.086 177.14 21.316 176.076 21.316C174.9 21.316 173.962 22.24 173.962 23.556C173.962 24.872 174.858 25.81 176.076 25.81C177.154 25.81 178.148 25.068 178.148 23.57Z" fill="#041834"/>
<path d="M68.02 40.08L67.91 40.25C67.48 40.91 67.14 41.39 66.91 41.7L68 43H67.06L66.43 42.25C65.87 42.81 65.28 43.11 64.52 43.11C63.35 43.11 62.5 42.38 62.5 41.39C62.5 41.04 62.61 40.71 62.83 40.4C63.06 40.09 63.44 39.74 63.99 39.33C63.5 38.7 63.28 38.27 63.28 37.74C63.28 36.87 63.87 36.29 64.75 36.29C65.17 36.29 65.52 36.42 65.79 36.68C66.06 36.93 66.2 37.26 66.2 37.65C66.2 38.25 65.83 38.79 65.02 39.42L66.42 41.1C66.57 40.89 66.79 40.57 67.07 40.13L67.38 39.66L68.02 40.08ZM64.04 37.74C64.04 38.1 64.2 38.42 64.6 38.91C65.2 38.42 65.44 38.09 65.44 37.68C65.44 37.25 65.18 37 64.75 37C64.28 37 64.04 37.26 64.04 37.74ZM65.95 41.67L64.44 39.86C63.5 40.59 63.32 40.83 63.32 41.32C63.32 41.95 63.83 42.39 64.54 42.39C65.04 42.39 65.51 42.15 65.95 41.67ZM77.8727 40.57C77.8727 42 76.8427 43.11 75.4727 43.11C74.7127 43.11 73.9927 42.78 73.6227 42.23V43H72.9027V35.5H73.6727V38.84C74.0627 38.33 74.7327 38.02 75.4627 38.02C76.8327 38.02 77.8727 39.14 77.8727 40.57ZM77.0827 40.56C77.0827 39.51 76.3427 38.73 75.3527 38.73C74.4527 38.73 73.6627 39.33 73.6627 40.57C73.6627 41.8 74.4827 42.4 75.3527 42.4C76.3427 42.4 77.0827 41.61 77.0827 40.56ZM79.6611 41.06V38.13H80.4211V41.11C80.4211 41.9 80.9611 42.4 81.6811 42.4C82.3911 42.4 82.9211 41.88 82.9211 41.11V38.13H83.6911V41.06C83.6911 42.29 82.8111 43.11 81.6811 43.11C80.5411 43.11 79.6611 42.29 79.6611 41.06ZM85.8168 43V38.13H86.5868V43H85.8168ZM85.6268 36.27C85.6268 35.96 85.8868 35.71 86.2068 35.71C86.5168 35.71 86.7768 35.96 86.7768 36.27C86.7768 36.59 86.5268 36.83 86.2068 36.83C85.8868 36.83 85.6268 36.59 85.6268 36.27ZM88.7777 43V35.5H89.5477V43H88.7777ZM95.5987 35.5H96.3687V43H95.6387V42.23C95.2687 42.78 94.5587 43.11 93.7987 43.11C92.4287 43.11 91.3887 42 91.3887 40.57C91.3887 39.14 92.4287 38.02 93.7987 38.02C94.5287 38.02 95.2087 38.33 95.5987 38.85V35.5ZM95.6087 40.57C95.6087 39.33 94.7887 38.73 93.9087 38.73C92.9187 38.73 92.1787 39.51 92.1787 40.56C92.1787 41.61 92.9187 42.4 93.9087 42.4C94.7887 42.4 95.6087 41.8 95.6087 40.57ZM104.52 42.35V43C104.21 43.07 103.94 43.11 103.71 43.11C102.7 43.11 102.07 42.6 102.07 41.53V38.82H101.25V38.13H102.07V36.8H102.84V38.13H104.36V38.82H102.84V41.48C102.84 42.17 103.2 42.41 103.87 42.41C104.06 42.41 104.27 42.39 104.52 42.35ZM108.758 38.13V38.81H108.468C107.648 38.81 106.938 39.34 106.938 40.24V43H106.168V38.13H106.888V38.82C107.238 38.35 107.808 38.09 108.398 38.09C108.508 38.09 108.628 38.1 108.758 38.13ZM110.231 41.06V38.13H110.991V41.11C110.991 41.9 111.531 42.4 112.251 42.4C112.961 42.4 113.491 41.88 113.491 41.11V38.13H114.261V41.06C114.261 42.29 113.381 43.11 112.251 43.11C111.111 43.11 110.231 42.29 110.231 41.06ZM115.927 42.16L116.417 41.65C116.887 42.13 117.267 42.4 117.817 42.4C118.347 42.4 118.747 42.14 118.747 41.71C118.747 41.32 118.497 41.17 117.897 40.93L117.427 40.73C116.617 40.4 116.217 40.03 116.217 39.38C116.217 38.53 116.927 38.02 117.857 38.02C118.537 38.02 119.087 38.31 119.487 38.79L119.017 39.27C118.687 38.94 118.267 38.73 117.817 38.73C117.337 38.73 117.007 38.95 117.007 39.34C117.007 39.65 117.207 39.8 117.797 40.05L118.247 40.24C119.157 40.63 119.537 41.01 119.537 41.68C119.537 42.13 119.367 42.49 119.037 42.74C118.707 42.99 118.307 43.11 117.827 43.11C117.017 43.11 116.357 42.72 115.927 42.16ZM124.088 42.35V43C123.778 43.07 123.508 43.11 123.278 43.11C122.268 43.11 121.638 42.6 121.638 41.53V38.82H120.818V38.13H121.638V36.8H122.408V38.13H123.928V38.82H122.408V41.48C122.408 42.17 122.768 42.41 123.438 42.41C123.628 42.41 123.838 42.39 124.088 42.35ZM129.039 43V38.13H129.809V43H129.039ZM128.849 36.27C128.849 35.96 129.109 35.71 129.429 35.71C129.739 35.71 129.999 35.96 129.999 36.27C129.999 36.59 129.749 36.83 129.429 36.83C129.109 36.83 128.849 36.59 128.849 36.27ZM136.03 39.94V43H135.26V40.03C135.26 39.26 134.8 38.73 134.05 38.73C133.3 38.73 132.77 39.27 132.77 40.03V43H132V38.13H132.72V38.65C133.08 38.25 133.61 38.02 134.22 38.02C135.35 38.02 136.03 38.79 136.03 39.94ZM141.117 40.56C141.087 39.17 142.277 38 143.667 38.02C144.517 38.02 145.237 38.43 145.677 39.08L145.127 39.52C144.737 38.99 144.247 38.73 143.677 38.73C142.667 38.73 141.907 39.55 141.907 40.56C141.907 41.58 142.667 42.4 143.677 42.4C144.247 42.4 144.727 42.14 145.117 41.62L145.667 42.05C145.227 42.7 144.517 43.11 143.667 43.11C142.257 43.11 141.117 41.97 141.117 40.56ZM147.027 40.56C146.997 39.17 148.187 37.99 149.577 38.02C150.967 38 152.157 39.17 152.127 40.56C152.157 41.93 150.957 43.13 149.567 43.1C148.177 43.13 147.007 41.93 147.027 40.56ZM151.337 40.57C151.337 39.52 150.567 38.73 149.577 38.73C148.577 38.73 147.817 39.52 147.817 40.57C147.817 41.59 148.577 42.39 149.567 42.39C150.557 42.39 151.337 41.59 151.337 40.57ZM161.091 39.94V43H160.321V40.04C160.321 39.25 159.891 38.73 159.171 38.73C158.441 38.73 157.921 39.28 157.921 39.97V43H157.151V40.04C157.151 39.25 156.701 38.73 155.991 38.73C155.261 38.73 154.751 39.27 154.751 40.04V43H153.981V38.13H154.701V38.64C155.051 38.24 155.551 38.02 156.151 38.02C156.861 38.02 157.371 38.33 157.651 38.86C158.011 38.35 158.601 38.02 159.321 38.02C160.441 38.02 161.091 38.78 161.091 39.94ZM170.331 39.94V43H169.561V40.04C169.561 39.25 169.131 38.73 168.411 38.73C167.681 38.73 167.161 39.28 167.161 39.97V43H166.391V40.04C166.391 39.25 165.941 38.73 165.231 38.73C164.501 38.73 163.991 39.27 163.991 40.04V43H163.221V38.13H163.941V38.64C164.291 38.24 164.791 38.02 165.391 38.02C166.101 38.02 166.611 38.33 166.891 38.86C167.251 38.35 167.841 38.02 168.561 38.02C169.681 38.02 170.331 38.78 170.331 39.94ZM172.401 41.06V38.13H173.161V41.11C173.161 41.9 173.701 42.4 174.421 42.4C175.131 42.4 175.661 41.88 175.661 41.11V38.13H176.431V41.06C176.431 42.29 175.551 43.11 174.421 43.11C173.281 43.11 172.401 42.29 172.401 41.06ZM182.587 39.94V43H181.817V40.03C181.817 39.26 181.357 38.73 180.607 38.73C179.857 38.73 179.327 39.27 179.327 40.03V43H178.557V38.13H179.277V38.65C179.637 38.25 180.167 38.02 180.777 38.02C181.907 38.02 182.587 38.79 182.587 39.94ZM184.721 43V38.13H185.491V43H184.721ZM184.531 36.27C184.531 35.96 184.791 35.71 185.111 35.71C185.421 35.71 185.681 35.96 185.681 36.27C185.681 36.59 185.431 36.83 185.111 36.83C184.791 36.83 184.531 36.59 184.531 36.27ZM190.342 42.35V43C190.032 43.07 189.762 43.11 189.532 43.11C188.522 43.11 187.892 42.6 187.892 41.53V38.82H187.072V38.13H187.892V36.8H188.662V38.13H190.182V38.82H188.662V41.48C188.662 42.17 189.022 42.41 189.692 42.41C189.882 42.41 190.092 42.39 190.342 42.35ZM195.451 38.13H196.271L193.871 43.68C193.501 44.53 192.971 44.91 192.221 44.91C191.971 44.91 191.721 44.88 191.471 44.81V44.16C191.721 44.19 191.921 44.21 192.061 44.21C192.571 44.21 192.911 44.02 193.161 43.43L193.421 42.85L191.401 38.13H192.231L193.841 42.01L195.451 38.13ZM201.184 43V38.13H201.954V43H201.184ZM200.994 36.27C200.994 35.96 201.254 35.71 201.574 35.71C201.884 35.71 202.144 35.96 202.144 36.27C202.144 36.59 201.894 36.83 201.574 36.83C201.254 36.83 200.994 36.59 200.994 36.27ZM208.175 39.94V43H207.405V40.03C207.405 39.26 206.945 38.73 206.195 38.73C205.445 38.73 204.915 39.27 204.915 40.03V43H204.145V38.13H204.865V38.65C205.225 38.25 205.755 38.02 206.365 38.02C207.495 38.02 208.175 38.79 208.175 39.94ZM214.502 37.02V38.13H215.722V38.82H214.502V43H213.732V38.82H213.032V38.13H213.732V36.97C213.732 35.9 214.352 35.39 215.342 35.39C215.552 35.39 215.762 35.42 215.952 35.47V36.12C215.792 36.1 215.652 36.09 215.522 36.09C214.872 36.09 214.502 36.33 214.502 37.02ZM221.439 40.8H217.589C217.679 41.76 218.419 42.4 219.379 42.4C219.929 42.4 220.429 42.18 220.869 41.74L221.319 42.26C220.809 42.79 220.139 43.11 219.369 43.11C217.919 43.11 216.789 42 216.789 40.57C216.789 39.16 217.889 38.02 219.279 38.02C220.539 38.02 221.499 38.93 221.499 40.22C221.499 40.41 221.479 40.6 221.439 40.8ZM217.619 40.12H220.709C220.699 39.25 220.069 38.72 219.259 38.72C218.449 38.72 217.789 39.28 217.619 40.12ZM229.727 38.13H230.547L228.497 43.11H228.217L226.557 39.43L224.907 43.11H224.637L222.567 38.13H223.387L224.797 41.74L226.417 38.02H226.707L228.347 41.71L229.727 38.13ZM235.005 42.16L235.495 41.65C235.965 42.13 236.345 42.4 236.895 42.4C237.425 42.4 237.825 42.14 237.825 41.71C237.825 41.32 237.575 41.17 236.975 40.93L236.505 40.73C235.695 40.4 235.295 40.03 235.295 39.38C235.295 38.53 236.005 38.02 236.935 38.02C237.615 38.02 238.165 38.31 238.565 38.79L238.095 39.27C237.765 38.94 237.345 38.73 236.895 38.73C236.415 38.73 236.085 38.95 236.085 39.34C236.085 39.65 236.285 39.8 236.875 40.05L237.325 40.24C238.235 40.63 238.615 41.01 238.615 41.68C238.615 42.13 238.445 42.49 238.115 42.74C237.785 42.99 237.385 43.11 236.905 43.11C236.095 43.11 235.435 42.72 235.005 42.16ZM243.166 42.35V43C242.856 43.07 242.586 43.11 242.356 43.11C241.346 43.11 240.716 42.6 240.716 41.53V38.82H239.896V38.13H240.716V36.8H241.486V38.13H243.006V38.82H241.486V41.48C241.486 42.17 241.846 42.41 242.516 42.41C242.706 42.41 242.916 42.39 243.166 42.35ZM249.017 40.8H245.167C245.257 41.76 245.997 42.4 246.957 42.4C247.507 42.4 248.007 42.18 248.447 41.74L248.897 42.26C248.387 42.79 247.717 43.11 246.947 43.11C245.497 43.11 244.367 42 244.367 40.57C244.367 39.16 245.467 38.02 246.857 38.02C248.117 38.02 249.077 38.93 249.077 40.22C249.077 40.41 249.057 40.6 249.017 40.8ZM245.197 40.12H248.287C248.277 39.25 247.647 38.72 246.837 38.72C246.027 38.72 245.367 39.28 245.197 40.12ZM255.9 40.56C255.9 41.99 254.86 43.11 253.49 43.11C252.77 43.11 252.1 42.81 251.7 42.3V44.8H250.93V38.13H251.65V38.91C252.02 38.35 252.73 38.02 253.49 38.02C254.88 38.02 255.9 39.13 255.9 40.56ZM255.11 40.57C255.11 39.52 254.37 38.73 253.38 38.73C252.51 38.73 251.69 39.33 251.69 40.56C251.69 41.8 252.48 42.4 253.38 42.4C254.37 42.4 255.11 41.62 255.11 40.57ZM257.288 42.16L257.778 41.65C258.248 42.13 258.628 42.4 259.178 42.4C259.708 42.4 260.108 42.14 260.108 41.71C260.108 41.32 259.858 41.17 259.258 40.93L258.788 40.73C257.978 40.4 257.578 40.03 257.578 39.38C257.578 38.53 258.288 38.02 259.218 38.02C259.898 38.02 260.448 38.31 260.848 38.79L260.378 39.27C260.048 38.94 259.628 38.73 259.178 38.73C258.698 38.73 258.368 38.95 258.368 39.34C258.368 39.65 258.568 39.8 259.158 40.05L259.608 40.24C260.518 40.63 260.898 41.01 260.898 41.68C260.898 42.13 260.728 42.49 260.398 42.74C260.068 42.99 259.668 43.11 259.188 43.11C258.378 43.11 257.718 42.72 257.288 42.16Z" fill="#020305" fill-opacity="0.7"/>
<path d="M302.96 26.4215C302.57 26.0966 302.573 25.5682 302.961 25.2449L303.048 25.1717C303.438 24.8467 304.068 24.8446 304.462 25.1733L309.546 29.41C309.937 29.7358 309.941 30.2612 309.546 30.59L304.462 34.8267C304.071 35.1525 303.436 35.1516 303.048 34.8282L302.961 34.755C302.571 34.4301 302.567 33.906 302.96 33.5785L307.254 30L302.96 26.4215Z" fill="#5F6E85" fill-opacity="0.4"/>
<defs>
<clipPath id="clip0_140_2564">
<rect width="38" height="38" fill="white" transform="translate(12 11)"/>
</clipPath>
</defs>
</svg>
