<svg width="65" height="42" viewBox="0 0 65 42" fill="none" xmlns="http://www.w3.org/2000/svg">
<g filter="url(#filter0_d_1_531)">
<rect x="12" y="7" width="41" height="17.7778" rx="8.88889" fill="white"/>
<rect width="11.3889" height="7.77778" transform="translate(39.4722 12.5555)" fill="white"/>
<path d="M43.7003 19.2542C43.6101 19.2542 43.52 19.2315 43.4488 19.1829C43.3112 19.0889 43.3112 18.9333 43.4488 18.8393L46.5428 16.7264C46.7706 16.5708 46.7706 16.3181 46.5428 16.1625L43.4488 14.0495C43.3112 13.9556 43.3112 13.8 43.4488 13.706C43.5864 13.612 43.8142 13.612 43.9518 13.706L47.0458 15.819C47.2878 15.9843 47.4254 16.2079 47.4254 16.4444C47.4254 16.681 47.2925 16.9046 47.0458 17.0699L43.9518 19.1829C43.8806 19.2282 43.7905 19.2542 43.7003 19.2542Z" fill="#FF7A00" stroke="#FF7A00"/>
<path d="M22.1479 14.0411C22.1194 13.7547 21.9975 13.5321 21.7821 13.3735C21.5666 13.2149 21.2743 13.1356 20.905 13.1356C20.654 13.1356 20.4421 13.1711 20.2693 13.2421C20.0965 13.3108 19.9639 13.4067 19.8716 13.5298C19.7816 13.6529 19.7366 13.7925 19.7366 13.9488C19.7319 14.079 19.7591 14.1926 19.8183 14.2897C19.8799 14.3868 19.9639 14.4708 20.0704 14.5418C20.177 14.6105 20.3001 14.6709 20.4398 14.7229C20.5794 14.7727 20.7286 14.8153 20.8872 14.8508L21.5406 15.007C21.8578 15.0781 22.149 15.1727 22.4142 15.2911C22.6793 15.4095 22.909 15.5551 23.1031 15.7279C23.2972 15.9007 23.4476 16.1043 23.5541 16.3387C23.663 16.5731 23.7186 16.8418 23.721 17.1448C23.7186 17.5899 23.605 17.9758 23.3801 18.3025C23.1576 18.6268 22.8356 18.879 22.4142 19.0589C21.9952 19.2364 21.4897 19.3252 20.8979 19.3252C20.3107 19.3252 19.7994 19.2352 19.3638 19.0553C18.9305 18.8754 18.592 18.6091 18.3481 18.2563C18.1067 17.9012 17.98 17.462 17.9682 16.9388H19.4561C19.4727 17.1827 19.5425 17.3863 19.6656 17.5496C19.7911 17.7106 19.958 17.8326 20.1663 17.9154C20.377 17.9959 20.6149 18.0361 20.8801 18.0361C21.1405 18.0361 21.3666 17.9983 21.5584 17.9225C21.7525 17.8468 21.9028 17.7414 22.0094 17.6065C22.1159 17.4715 22.1692 17.3165 22.1692 17.1413C22.1692 16.9779 22.1206 16.8406 22.0236 16.7293C21.9289 16.6181 21.7892 16.5234 21.6045 16.4452C21.4222 16.3671 21.1985 16.2961 20.9334 16.2322L20.1415 16.0333C19.5283 15.8842 19.0442 15.651 18.689 15.3337C18.3339 15.0165 18.1576 14.5892 18.1599 14.0518C18.1576 13.6114 18.2747 13.2267 18.5115 12.8977C18.7506 12.5686 19.0785 12.3117 19.4952 12.1271C19.9118 11.9424 20.3853 11.8501 20.9156 11.8501C21.4554 11.8501 21.9265 11.9424 22.329 12.1271C22.7338 12.3117 23.0487 12.5686 23.2736 12.8977C23.4985 13.2267 23.6145 13.6079 23.6216 14.0411H22.1479ZM26.4976 17.6526L26.5012 15.838H26.7213L28.4685 13.7677H30.205L27.8577 16.5092H27.499L26.4976 17.6526ZM25.1269 19.2222V11.9495H26.6396V19.2222H25.1269ZM28.536 19.2222L26.9308 16.8465L27.9394 15.7776L30.308 19.2222H28.536ZM31.3472 19.2222V13.7677H32.86V19.2222H31.3472ZM32.1071 13.0646C31.8822 13.0646 31.6893 12.99 31.5283 12.8408C31.3697 12.6893 31.2904 12.5082 31.2904 12.2975C31.2904 12.0892 31.3697 11.9104 31.5283 11.7613C31.6893 11.6098 31.8822 11.534 32.1071 11.534C32.332 11.534 32.5238 11.6098 32.6824 11.7613C32.8434 11.9104 32.9239 12.0892 32.9239 12.2975C32.9239 12.5082 32.8434 12.6893 32.6824 12.8408C32.5238 12.99 32.332 13.0646 32.1071 13.0646ZM34.4718 21.2677V13.7677H35.9633V14.6839H36.0307C36.097 14.5371 36.1929 14.3879 36.3184 14.2364C36.4462 14.0826 36.6119 13.9547 36.8155 13.8529C37.0215 13.7487 37.2772 13.6967 37.5826 13.6967C37.9803 13.6967 38.3473 13.8008 38.6834 14.0092C39.0196 14.2151 39.2883 14.5264 39.4895 14.9431C39.6908 15.3574 39.7914 15.8771 39.7914 16.5021C39.7914 17.1105 39.6931 17.6242 39.4966 18.0433C39.3025 18.4599 39.0374 18.776 38.7012 18.9914C38.3674 19.2045 37.9933 19.311 37.579 19.311C37.2855 19.311 37.0357 19.2625 36.8297 19.1654C36.6261 19.0683 36.4592 18.9464 36.329 18.7996C36.1988 18.6505 36.0994 18.5002 36.0307 18.3486H35.9846V21.2677H34.4718ZM35.9526 16.495C35.9526 16.8193 35.9976 17.1022 36.0876 17.3437C36.1775 17.5852 36.3077 17.7734 36.4782 17.9083C36.6486 18.0409 36.8558 18.1072 37.0996 18.1072C37.3458 18.1072 37.5542 18.0397 37.7246 17.9048C37.8951 17.7674 38.0241 17.5781 38.1117 17.3366C38.2017 17.0927 38.2466 16.8122 38.2466 16.495C38.2466 16.1801 38.2028 15.9031 38.1153 15.664C38.0277 15.4249 37.8986 15.2379 37.7282 15.1029C37.5577 14.968 37.3482 14.9005 37.0996 14.9005C36.8534 14.9005 36.6451 14.9656 36.4746 15.0958C36.3065 15.226 36.1775 15.4107 36.0876 15.6498C35.9976 15.8889 35.9526 16.1706 35.9526 16.495Z" fill="#FF7A00"/>
</g>
<defs>
<filter id="filter0_d_1_531" x="0.7" y="0.7" width="63.6" height="40.3778" filterUnits="userSpaceOnUse" color-interpolation-filters="sRGB">
<feFlood flood-opacity="0" result="BackgroundImageFix"/>
<feColorMatrix in="SourceAlpha" type="matrix" values="0 0 0 0 0 0 0 0 0 0 0 0 0 0 0 0 0 0 127 0" result="hardAlpha"/>
<feOffset dy="5"/>
<feGaussianBlur stdDeviation="5.65"/>
<feComposite in2="hardAlpha" operator="out"/>
<feColorMatrix type="matrix" values="0 0 0 0 0 0 0 0 0 0 0 0 0 0 0 0 0 0 0.1 0"/>
<feBlend mode="normal" in2="BackgroundImageFix" result="effect1_dropShadow_1_531"/>
<feBlend mode="normal" in="SourceGraphic" in2="effect1_dropShadow_1_531" result="shape"/>
</filter>
</defs>
</svg>
